<?xml version="1.0" encoding="UTF-8"?>
<!DOCTYPE svg PUBLIC "-//W3C//DTD SVG 1.1//EN" "http://www.w3.org/Graphics/SVG/1.1/DTD/svg11.dtd">
<svg xmlns="http://www.w3.org/2000/svg" version="1.1" width="512px" height="512px" style="shape-rendering:geometricPrecision; text-rendering:geometricPrecision; image-rendering:optimizeQuality; fill-rule:evenodd; clip-rule:evenodd" xmlns:xlink="http://www.w3.org/1999/xlink">
<g><path style="opacity:0.981" fill="#010102" d="M 135.5,-0.5 C 140.833,-0.5 146.167,-0.5 151.5,-0.5C 166.294,5.40003 173.294,16.4 172.5,32.5C 216.833,32.5 261.167,32.5 305.5,32.5C 304.2,16.079 311.2,5.079 326.5,-0.5C 331.5,-0.5 336.5,-0.5 341.5,-0.5C 356.778,5.02343 363.778,16.0234 362.5,32.5C 384.836,32.3334 407.169,32.5 429.5,33C 448.351,37.5167 459.184,49.35 462,68.5C 462.333,143.167 462.667,217.833 463,292.5C 496.044,333.766 503.711,379.432 486,429.5C 465.159,475.838 429.659,503.171 379.5,511.5C 368.833,511.5 358.167,511.5 347.5,511.5C 297.178,503.663 261.512,476.496 240.5,430C 194.833,429.667 149.167,429.333 103.5,429C 99.6093,427.943 97.2759,425.443 96.5,421.5C 97.0185,417.976 99.0185,415.643 102.5,414.5C 147.172,414.833 191.838,414.5 236.5,413.5C 236.376,412.893 236.043,412.56 235.5,412.5C 234.5,407.164 233.5,401.83 232.5,396.5C 171.169,395.667 109.836,395.167 48.5,395C 42.7844,393.309 37.4511,390.809 32.5,387.5C 31.5231,400.72 37.5231,409.22 50.5,413C 59.5,413.333 68.5,413.667 77.5,414C 80.7892,415.41 82.4559,417.91 82.5,421.5C 82.5181,425.637 80.5181,428.137 76.5,429C 64.2769,430.281 52.2769,429.281 40.5,426C 28.7847,420.618 20.9514,411.784 17,399.5C 15.3524,338.87 15.019,278.203 16,217.5C 17.7077,214.724 20.2077,213.057 23.5,212.5C 26.7926,213.41 29.2926,215.41 31,218.5C 31.3333,266.5 31.6667,314.5 32,362.5C 35.2603,371.427 41.427,377.261 50.5,380C 110.832,380.5 171.166,380.667 231.5,380.5C 231.491,348.69 241.491,320.523 261.5,296C 255.531,294.702 251.365,291.202 249,285.5C 241.833,254 254,241.833 285.5,249C 292.301,252.425 296.301,257.925 297.5,265.5C 333.093,246.5 370.093,243.334 408.5,256C 416.436,259.029 424.103,262.529 431.5,266.5C 436.175,270.268 441.009,273.934 446,277.5C 446.5,239.501 446.667,201.501 446.5,163.5C 441.5,163.5 436.5,163.5 431.5,163.5C 298.167,163.5 164.833,163.5 31.5,163.5C 31.6665,173.172 31.4998,182.839 31,192.5C 29.5198,195.817 27.0198,197.817 23.5,198.5C 19.8296,198.673 17.3296,197.007 16,193.5C 15.3333,151.5 15.3333,109.5 16,67.5C 19.1919,49.3088 29.6919,37.8088 47.5,33C 69.8308,32.5 92.1642,32.3334 114.5,32.5C 113.918,16.4601 120.918,5.46009 135.5,-0.5 Z"/></g>
<g><path style="opacity:1" fill="#d0d9f7" d="M 328.5,80.5 C 329.594,78.6406 330.427,76.6406 331,74.5C 331.667,56.8333 331.667,39.1667 331,21.5C 330.303,19.4156 329.136,17.7489 327.5,16.5C 335.039,12.7366 341.205,14.4033 346,21.5C 347.139,30.0695 347.639,38.7362 347.5,47.5C 347.611,56.8905 347.111,66.2238 346,75.5C 341.306,82.1396 335.473,83.8063 328.5,80.5 Z"/></g>
<g><path style="opacity:1" fill="#d1daf9" d="M 137.5,80.5 C 139.446,78.266 140.613,75.5994 141,72.5C 141.667,55.8333 141.667,39.1667 141,22.5C 140.059,20.2726 138.892,18.2726 137.5,16.5C 144.16,13.3145 149.994,14.6479 155,20.5C 156.141,29.5705 156.641,38.7371 156.5,48C 156.333,56.5 156.167,65 156,73.5C 151.881,81.7021 145.714,84.0354 137.5,80.5 Z"/></g>
<g><path style="opacity:1" fill="#e1ebf1" d="M 327.5,16.5 C 329.136,17.7489 330.303,19.4156 331,21.5C 331.667,39.1667 331.667,56.8333 331,74.5C 330.427,76.6406 329.594,78.6406 328.5,80.5C 324.416,78.9084 321.916,75.9084 321,71.5C 320.333,55.8333 320.333,40.1667 321,24.5C 322.274,21.0641 324.441,18.3974 327.5,16.5 Z"/></g>
<g><path style="opacity:1" fill="#e9f3fa" d="M 137.5,16.5 C 138.892,18.2726 140.059,20.2726 141,22.5C 141.667,39.1667 141.667,55.8333 141,72.5C 140.613,75.5994 139.446,78.266 137.5,80.5C 134.168,78.8658 132.001,76.1991 131,72.5C 130.333,56.1667 130.333,39.8333 131,23.5C 132.012,19.9916 134.178,17.6582 137.5,16.5 Z"/></g>
<g><path style="opacity:1" fill="#0a1253" d="M 419.5,47.5 C 425.929,53.0212 429.763,60.0212 431,68.5C 431.5,84.1631 431.667,99.8298 431.5,115.5C 298.167,115.5 164.833,115.5 31.5,115.5C 31.3334,98.83 31.5001,82.1633 32,65.5C 35.3603,56.1384 41.8603,50.305 51.5,48C 72.8307,47.5 94.1641,47.3334 115.5,47.5C 115.5,53.5 115.5,59.5 115.5,65.5C 111.033,65.1326 106.7,65.6326 102.5,67C 96.9641,71.8376 97.2974,76.1709 103.5,80C 108.533,80.171 113.533,80.671 118.5,81.5C 129.016,98.3871 143.016,101.887 160.5,92C 164.257,88.9142 167.257,85.2475 169.5,81C 174.5,80.6667 179.5,80.3333 184.5,80C 189.313,75.9586 189.646,71.6253 185.5,67C 180.934,65.6908 176.267,65.1908 171.5,65.5C 171.5,59.5 171.5,53.5 171.5,47.5C 216.5,47.5 261.5,47.5 306.5,47.5C 306.5,53.5 306.5,59.5 306.5,65.5C 301.703,65.1211 297.036,65.6211 292.5,67C 288.231,71.7091 288.564,76.0424 293.5,80C 298.5,80.3333 303.5,80.6667 308.5,81C 318.523,97.3401 332.19,101.34 349.5,93C 353.875,90.0892 357.209,86.2559 359.5,81.5C 364.467,80.671 369.467,80.171 374.5,80C 378.212,77.487 379.378,73.987 378,69.5C 377.167,68.6667 376.333,67.8333 375.5,67C 371.3,65.6326 366.967,65.1326 362.5,65.5C 362.5,59.5 362.5,53.5 362.5,47.5C 381.5,47.5 400.5,47.5 419.5,47.5 Z"/></g>
<g><path style="opacity:1" fill="#040a2f" d="M 419.5,47.5 C 432.715,47.9012 441.549,54.2346 446,66.5C 446.5,82.8299 446.667,99.1633 446.5,115.5C 441.5,115.5 436.5,115.5 431.5,115.5C 431.667,99.8298 431.5,84.1631 431,68.5C 429.763,60.0212 425.929,53.0212 419.5,47.5 Z"/></g>
<g><path style="opacity:1" fill="#0a1253" d="M 431.5,130.5 C 431.5,136.5 431.5,142.5 431.5,148.5C 298.167,148.5 164.833,148.5 31.5,148.5C 31.5,142.5 31.5,136.5 31.5,130.5C 164.833,130.5 298.167,130.5 431.5,130.5 Z"/></g>
<g><path style="opacity:1" fill="#040a30" d="M 431.5,130.5 C 436.5,130.5 441.5,130.5 446.5,130.5C 446.5,136.5 446.5,142.5 446.5,148.5C 441.5,148.5 436.5,148.5 431.5,148.5C 431.5,142.5 431.5,136.5 431.5,130.5 Z"/></g>
<g><path style="opacity:1" fill="#e8f2f9" d="M 431.5,163.5 C 431.5,197.833 431.5,232.167 431.5,266.5C 424.103,262.529 416.436,259.029 408.5,256C 370.093,243.334 333.093,246.5 297.5,265.5C 296.301,257.925 292.301,252.425 285.5,249C 254,241.833 241.833,254 249,285.5C 251.365,291.202 255.531,294.702 261.5,296C 241.491,320.523 231.491,348.69 231.5,380.5C 171.166,380.667 110.832,380.5 50.5,380C 41.427,377.261 35.2603,371.427 32,362.5C 31.6667,314.5 31.3333,266.5 31,218.5C 29.2926,215.41 26.7926,213.41 23.5,212.5C 23.5,207.833 23.5,203.167 23.5,198.5C 27.0198,197.817 29.5198,195.817 31,192.5C 31.4998,182.839 31.6665,173.172 31.5,163.5C 164.833,163.5 298.167,163.5 431.5,163.5 Z"/></g>
<g><path style="opacity:1" fill="#d2dbfa" d="M 431.5,163.5 C 436.5,163.5 441.5,163.5 446.5,163.5C 446.667,201.501 446.5,239.501 446,277.5C 441.009,273.934 436.175,270.268 431.5,266.5C 431.5,232.167 431.5,197.833 431.5,163.5 Z"/></g>
<g><path style="opacity:1" fill="#040405" d="M 60.5,181.5 C 91.3573,175.524 103.524,187.857 97,218.5C 95.1667,223.667 91.6667,227.167 86.5,229C 54.5143,236.013 42.3476,223.513 50,191.5C 52.7379,187.26 56.2379,183.926 60.5,181.5 Z"/></g>
<g><path style="opacity:1" fill="#030304" d="M 127.5,181.5 C 157.38,175.88 169.214,187.88 163,217.5C 162.08,222.188 159.58,225.688 155.5,228C 122.794,237.591 109.627,225.757 116,192.5C 118.437,187.226 122.271,183.56 127.5,181.5 Z"/></g>
<g><path style="opacity:1" fill="#040405" d="M 193.5,181.5 C 223.911,176.077 235.745,188.411 229,218.5C 227.5,224 224,227.5 218.5,229C 188.232,235.732 176.065,223.898 182,193.5C 184.019,187.65 187.852,183.65 193.5,181.5 Z"/></g>
<g><path style="opacity:1" fill="#050506" d="M 259.5,181.5 C 267.84,181.334 276.173,181.5 284.5,182C 290.333,183.833 294.167,187.667 296,193.5C 301.782,224.382 289.282,236.215 258.5,229C 254,227.167 250.833,224 249,219.5C 248.333,210.167 248.333,200.833 249,191.5C 251.354,186.916 254.854,183.583 259.5,181.5 Z"/></g>
<g><path style="opacity:1" fill="#040405" d="M 325.5,181.5 C 356.357,175.524 368.524,187.857 362,218.5C 360.332,222.342 357.832,225.509 354.5,228C 318.749,236.915 306.249,223.749 317,188.5C 319.441,185.546 322.275,183.213 325.5,181.5 Z"/></g>
<g><path style="opacity:1" fill="#030404" d="M 392.5,181.5 C 424.768,176.612 436.268,189.945 427,221.5C 425.01,225.49 421.843,227.99 417.5,229C 408.5,229.667 399.5,229.667 390.5,229C 385.6,227.098 382.433,223.598 381,218.5C 380.333,209.833 380.333,201.167 381,192.5C 383.437,187.226 387.271,183.56 392.5,181.5 Z"/></g>
<g><path style="opacity:1" fill="#2a4188" d="M 64.5,196.5 C 70.5,196.5 76.5,196.5 82.5,196.5C 82.5,202.833 82.5,209.167 82.5,215.5C 76.5,215.5 70.5,215.5 64.5,215.5C 64.5,209.167 64.5,202.833 64.5,196.5 Z"/></g>
<g><path style="opacity:1" fill="#2b438c" d="M 130.5,196.5 C 136.5,196.5 142.5,196.5 148.5,196.5C 148.5,202.5 148.5,208.5 148.5,214.5C 142.5,214.5 136.5,214.5 130.5,214.5C 130.5,208.5 130.5,202.5 130.5,196.5 Z"/></g>
<g><path style="opacity:1" fill="#2a4188" d="M 196.5,196.5 C 202.5,196.5 208.5,196.5 214.5,196.5C 214.5,202.833 214.5,209.167 214.5,215.5C 208.5,215.5 202.5,215.5 196.5,215.5C 196.5,209.167 196.5,202.833 196.5,196.5 Z"/></g>
<g><path style="opacity:1" fill="#1c2b58" d="M 280.5,214.5 C 280.5,208.833 280.5,203.167 280.5,197.5C 274.833,197.5 269.167,197.5 263.5,197.5C 263.5,203.167 263.5,208.833 263.5,214.5C 262.51,208.69 262.177,202.69 262.5,196.5C 268.833,196.5 275.167,196.5 281.5,196.5C 281.823,202.69 281.49,208.69 280.5,214.5 Z"/></g>
<g><path style="opacity:1" fill="#2c448e" d="M 280.5,214.5 C 274.833,214.5 269.167,214.5 263.5,214.5C 263.5,208.833 263.5,203.167 263.5,197.5C 269.167,197.5 274.833,197.5 280.5,197.5C 280.5,203.167 280.5,208.833 280.5,214.5 Z"/></g>
<g><path style="opacity:1" fill="#2b438b" d="M 329.5,196.5 C 335.5,196.5 341.5,196.5 347.5,196.5C 347.5,202.5 347.5,208.5 347.5,214.5C 341.5,214.5 335.5,214.5 329.5,214.5C 329.5,208.5 329.5,202.5 329.5,196.5 Z"/></g>
<g><path style="opacity:1" fill="#2b438c" d="M 395.5,196.5 C 401.5,196.5 407.5,196.5 413.5,196.5C 413.5,202.5 413.5,208.5 413.5,214.5C 407.5,214.5 401.5,214.5 395.5,214.5C 395.5,208.5 395.5,202.5 395.5,196.5 Z"/></g>
<g><path style="opacity:1" fill="#050505" d="M 58.5,248.5 C 67.8393,248.334 77.1726,248.5 86.5,249C 91.8761,250.556 95.3761,254.056 97,259.5C 103.674,289.825 91.8408,301.992 61.5,296C 55.6667,294.167 51.8333,290.333 50,284.5C 49.3333,275.833 49.3333,267.167 50,258.5C 51.9779,254.362 54.8112,251.029 58.5,248.5 Z"/></g>
<g><path style="opacity:1" fill="#040405" d="M 125.5,248.5 C 134.506,248.334 143.506,248.5 152.5,249C 157.573,250.406 161.073,253.572 163,258.5C 170.203,289.294 158.369,301.794 127.5,296C 121.667,294.167 117.833,290.333 116,284.5C 115.333,276.167 115.333,267.833 116,259.5C 117.599,254.406 120.766,250.739 125.5,248.5 Z"/></g>
<g><path style="opacity:1" fill="#050506" d="M 191.5,248.5 C 226.302,242.14 238.135,255.806 227,289.5C 224.635,292.869 221.468,295.036 217.5,296C 209.5,296.667 201.5,296.667 193.5,296C 187.667,294.167 183.833,290.333 182,284.5C 181.333,276.167 181.333,267.833 182,259.5C 183.798,254.518 186.965,250.851 191.5,248.5 Z"/></g>
<g><path style="opacity:1" fill="#2a4187" d="M 64.5,262.5 C 70.5,262.5 76.5,262.5 82.5,262.5C 82.5,268.833 82.5,275.167 82.5,281.5C 76.5,281.5 70.5,281.5 64.5,281.5C 64.5,275.167 64.5,268.833 64.5,262.5 Z"/></g>
<g><path style="opacity:1" fill="#2b438b" d="M 130.5,263.5 C 136.5,263.5 142.5,263.5 148.5,263.5C 148.5,269.5 148.5,275.5 148.5,281.5C 142.5,281.5 136.5,281.5 130.5,281.5C 130.5,275.5 130.5,269.5 130.5,263.5 Z"/></g>
<g><path style="opacity:1" fill="#2a4187" d="M 196.5,262.5 C 202.5,262.5 208.5,262.5 214.5,262.5C 214.5,268.833 214.5,275.167 214.5,281.5C 208.5,281.5 202.5,281.5 196.5,281.5C 196.5,275.167 196.5,268.833 196.5,262.5 Z"/></g>
<g><path style="opacity:1" fill="#293f82" d="M 263.5,262.5 C 269.425,262.192 275.259,262.525 281,263.5C 283.691,278.477 277.691,284.144 263,280.5C 262.212,274.418 262.379,268.418 263.5,262.5 Z"/></g>
<g><path style="opacity:1" fill="#4da8f2" d="M 396.5,268.5 C 451.971,301.47 473.138,349.803 460,413.5C 449.088,448.362 427.588,474.362 395.5,491.5C 345.122,503.985 303.288,490.318 270,450.5C 242.491,410.491 239.158,368.491 260,324.5C 291.991,272.892 337.491,254.226 396.5,268.5 Z"/></g>
<g><path style="opacity:1" fill="#1884e7" d="M 396.5,268.5 C 442.568,283.409 470.068,314.742 479,362.5C 483.651,408.333 468.151,445.499 432.5,474C 421.195,481.986 408.861,487.819 395.5,491.5C 427.588,474.362 449.088,448.362 460,413.5C 473.138,349.803 451.971,301.47 396.5,268.5 Z"/></g>
<g><path style="opacity:1" fill="#020304" d="M 351.5,281.5 C 394.789,278.685 427.622,295.685 450,332.5C 467.816,370.311 464.816,406.311 441,440.5C 412.134,473.564 376.301,484.731 333.5,474C 285.368,454.927 262.534,419.427 265,367.5C 274.482,319.184 303.315,290.518 351.5,281.5 Z"/></g>
<g><path style="opacity:1" fill="#e9f3fa" d="M 383.5,298.5 C 425.752,326.413 439.585,364.747 425,413.5C 416.246,433.748 402.413,449.414 383.5,460.5C 340.196,468.766 308.029,453.433 287,414.5C 271.613,374.547 280.113,340.714 312.5,313C 333.9,297.353 357.567,292.52 383.5,298.5 Z"/></g>
<g><path style="opacity:1" fill="#d0d9f7" d="M 383.5,298.5 C 428.441,313.638 449.274,344.971 446,392.5C 439.079,428.041 418.246,450.708 383.5,460.5C 402.413,449.414 416.246,433.748 425,413.5C 439.585,364.747 425.752,326.413 383.5,298.5 Z"/></g>
<g><path style="opacity:1" fill="#030304" d="M 59.5,314.5 C 68.1731,314.334 76.8397,314.5 85.5,315C 90.9104,316.743 94.7437,320.243 97,325.5C 103.466,356.367 91.2996,368.534 60.5,362C 54.9022,360.069 51.4022,356.236 50,350.5C 49.3333,341.833 49.3333,333.167 50,324.5C 52.0223,319.98 55.189,316.647 59.5,314.5 Z"/></g>
<g><path style="opacity:1" fill="#020203" d="M 125.5,314.5 C 134.173,314.334 142.84,314.5 151.5,315C 157.528,316.025 161.361,319.525 163,325.5C 169.5,356.333 157.333,368.5 126.5,362C 121.243,359.744 117.743,355.91 116,350.5C 115.333,342.167 115.333,333.833 116,325.5C 117.97,320.704 121.137,317.037 125.5,314.5 Z"/></g>
<g><path style="opacity:1" fill="#030304" d="M 192.5,314.5 C 224.016,307.849 236.182,320.182 229,351.5C 227.167,356.667 223.667,360.167 218.5,362C 187.7,368.534 175.534,356.367 182,325.5C 184.357,320.645 187.857,316.979 192.5,314.5 Z"/></g>
<g><path style="opacity:1" fill="#040404" d="M 359.5,314.5 C 363.909,313.618 367.409,314.952 370,318.5C 370.5,331.496 370.667,344.496 370.5,357.5C 378.5,359.5 383.5,364.5 385.5,372.5C 393.611,372.065 401.611,372.565 409.5,374C 412.383,378.269 412.05,382.269 408.5,386C 400.914,387.102 393.248,387.936 385.5,388.5C 377.952,402.727 366.619,406.893 351.5,401C 341.43,394.141 337.596,384.641 340,372.5C 342.779,364.886 347.945,359.886 355.5,357.5C 355.333,344.829 355.5,332.162 356,319.5C 356.997,317.677 358.164,316.01 359.5,314.5 Z"/></g>
<g><path style="opacity:1" fill="#2b438c" d="M 64.5,329.5 C 70.5,329.5 76.5,329.5 82.5,329.5C 82.5,335.5 82.5,341.5 82.5,347.5C 76.5,347.5 70.5,347.5 64.5,347.5C 64.5,341.5 64.5,335.5 64.5,329.5 Z"/></g>
<g><path style="opacity:1" fill="#2c448e" d="M 130.5,329.5 C 136.5,329.5 142.5,329.5 148.5,329.5C 148.5,335.5 148.5,341.5 148.5,347.5C 142.5,347.5 136.5,347.5 130.5,347.5C 130.5,341.5 130.5,335.5 130.5,329.5 Z"/></g>
<g><path style="opacity:1" fill="#2b438c" d="M 196.5,329.5 C 202.5,329.5 208.5,329.5 214.5,329.5C 214.5,335.5 214.5,341.5 214.5,347.5C 208.5,347.5 202.5,347.5 196.5,347.5C 196.5,341.5 196.5,335.5 196.5,329.5 Z"/></g>
<g><path style="opacity:1" fill="#f6d53d" d="M 360.5,370.5 C 368.986,370.151 372.82,374.151 372,382.5C 369.367,387.732 365.201,389.565 359.5,388C 354.845,385.103 353.345,380.937 355,375.5C 356.73,373.598 358.563,371.931 360.5,370.5 Z"/></g>
<g><path style="opacity:0.999" fill="#d2dbfa" d="M 235.5,412.5 C 191.167,413.167 146.833,413.833 102.5,414.5C 99.0185,415.643 97.0185,417.976 96.5,421.5C 91.8333,421.5 87.1667,421.5 82.5,421.5C 82.4559,417.91 80.7892,415.41 77.5,414C 68.5,413.667 59.5,413.333 50.5,413C 37.5231,409.22 31.5231,400.72 32.5,387.5C 37.4511,390.809 42.7844,393.309 48.5,395C 109.836,395.167 171.169,395.667 232.5,396.5C 233.5,401.83 234.5,407.164 235.5,412.5 Z"/></g>
<g><path style="opacity:1" fill="#2a2c32" d="M 235.5,412.5 C 236.043,412.56 236.376,412.893 236.5,413.5C 191.838,414.5 147.172,414.833 102.5,414.5C 146.833,413.833 191.167,413.167 235.5,412.5 Z"/></g>
</svg>
