<svg width="31" height="30" viewBox="0 0 31 30" fill="none" xmlns="http://www.w3.org/2000/svg">
<g id="&#240;&#159;&#166;&#134; icon &#34;Calendar Schedule&#34;">
<g id="Group">
<path id="Vector" d="M6.27637 0.747786C6.27637 0.334799 6.62981 0 7.06584 0C7.50187 0 7.85531 0.334799 7.85531 0.747786V5.2345C7.85531 5.6475 7.50187 5.98229 7.06584 5.98229C6.62981 5.98229 6.27637 5.6475 6.27637 5.2345V0.747786Z" fill="#676D75"/>
<path id="Vector_2" d="M18.9078 0.747786C18.9078 0.334799 19.2613 0 19.6973 0C20.1333 0 20.4868 0.334799 20.4868 0.747786V5.2345C20.4868 5.6475 20.1333 5.98229 19.6973 5.98229C19.2613 5.98229 18.9078 5.6475 18.9078 5.2345V0.747786Z" fill="#676D75"/>
<g id="Group_2">
<path id="Vector_3" fill-rule="evenodd" clip-rule="evenodd" d="M7.85528 14.2082H6.27633V15.7038H7.85528V14.2082ZM6.27633 12.7126C5.40428 12.7126 4.69739 13.3822 4.69739 14.2082V15.7038C4.69739 16.5298 5.40428 17.1994 6.27633 17.1994H7.85528C8.72733 17.1994 9.43423 16.5298 9.43423 15.7038V14.2082C9.43423 13.3822 8.72733 12.7126 7.85528 12.7126H6.27633Z" fill="#676D75"/>
<path id="Vector_4" fill-rule="evenodd" clip-rule="evenodd" d="M14.1708 14.2082H12.5919V15.7038H14.1708V14.2082ZM12.5919 12.7126C11.7198 12.7126 11.0129 13.3822 11.0129 14.2082V15.7038C11.0129 16.5298 11.7198 17.1994 12.5919 17.1994H14.1708C15.0429 17.1994 15.7498 16.5298 15.7498 15.7038V14.2082C15.7498 13.3822 15.0429 12.7126 14.1708 12.7126H12.5919Z" fill="#676D75"/>
<path id="Vector_5" fill-rule="evenodd" clip-rule="evenodd" d="M20.4869 14.2082H18.9079V15.7038H20.4869V14.2082ZM18.9079 12.7126C18.0359 12.7126 17.329 13.3822 17.329 14.2082V15.7038C17.329 16.5298 18.0359 17.1994 18.9079 17.1994H20.4869C21.3589 17.1994 22.0658 16.5298 22.0658 15.7038V14.2082C22.0658 13.3822 21.3589 12.7126 20.4869 12.7126H18.9079Z" fill="#676D75"/>
<path id="Vector_6" fill-rule="evenodd" clip-rule="evenodd" d="M7.85528 20.1903H6.27633V21.6858H7.85528V20.1903ZM6.27633 18.6947C5.40428 18.6947 4.69739 19.3643 4.69739 20.1903V21.6858C4.69739 22.5118 5.40428 23.1814 6.27633 23.1814H7.85528C8.72733 23.1814 9.43423 22.5118 9.43423 21.6858V20.1903C9.43423 19.3643 8.72733 18.6947 7.85528 18.6947H6.27633Z" fill="#676D75"/>
<path id="Vector_7" fill-rule="evenodd" clip-rule="evenodd" d="M14.1708 20.1903H12.5919V21.6858H14.1708V20.1903ZM12.5919 18.6947C11.7198 18.6947 11.0129 19.3643 11.0129 20.1903V21.6858C11.0129 22.5118 11.7198 23.1814 12.5919 23.1814H14.1708C15.0429 23.1814 15.7498 22.5118 15.7498 21.6858V20.1903C15.7498 19.3643 15.0429 18.6947 14.1708 18.6947H12.5919Z" fill="#676D75"/>
<path id="Vector_8" fill-rule="evenodd" clip-rule="evenodd" d="M3.90789 4.48654H22.8553C23.7273 4.48654 24.4342 5.15611 24.4342 5.98211V17.9467C24.9794 17.9467 25.5085 18.0121 26.0132 18.1351V5.98211C26.0132 4.33015 24.5993 2.99097 22.8553 2.99097H3.90789C2.16384 2.99097 0.75 4.33015 0.75 5.98211V23.929C0.75 25.5809 2.16384 26.9201 3.90789 26.9201H18.9634C18.6807 26.4572 18.4616 25.9551 18.3174 25.4245H3.90789C3.03587 25.4245 2.32895 24.755 2.32895 23.929V5.98211C2.32895 5.15611 3.03587 4.48654 3.90789 4.48654Z" fill="#676D75"/>
<path id="Vector_9" fill-rule="evenodd" clip-rule="evenodd" d="M25.2239 11.2165H1.53967V9.72095H25.2239V11.2165Z" fill="#676D75"/>
<path id="Vector_10" fill-rule="evenodd" clip-rule="evenodd" d="M24.4342 28.4157C27.0503 28.4157 29.171 26.4069 29.171 23.9289C29.171 21.451 27.0503 19.4422 24.4342 19.4422C21.8181 19.4422 19.6974 21.451 19.6974 23.9289C19.6974 26.4069 21.8181 28.4157 24.4342 28.4157ZM24.4342 29.9112C27.9223 29.9112 30.75 27.2329 30.75 23.9289C30.75 20.625 27.9223 17.9467 24.4342 17.9467C20.9461 17.9467 18.1184 20.625 18.1184 23.9289C18.1184 27.2329 20.9461 29.9112 24.4342 29.9112Z" fill="#676D75"/>
<path id="Vector_11" fill-rule="evenodd" clip-rule="evenodd" d="M24.4342 20.3239C24.8703 20.3239 25.2237 20.6586 25.2237 21.0716V24.2857L27.1591 25.5582C27.5173 25.7937 27.6061 26.2596 27.3574 26.5989C27.1088 26.9382 26.6169 27.0223 26.2587 26.7868L23.6448 25.0682V21.0716C23.6448 20.6586 23.9982 20.3239 24.4342 20.3239Z" fill="#676D75"/>
</g>
</g>
</g>
</svg>
