<svg width="18" height="19" viewBox="0 0 18 19" fill="none" xmlns="http://www.w3.org/2000/svg">
<g id="&#240;&#159;&#166;&#134; icon &#34;Chat Bubbles Question&#34;">
<g id="Group">
<path id="Vector" d="M7.32931 4.37803C6.92754 4.45654 6.48887 4.71721 6.14191 5.32743C5.98875 5.59684 5.64618 5.69106 5.37678 5.53789C5.10737 5.38472 5.01315 5.04215 5.16633 4.77276C5.66107 3.90258 6.36472 3.42306 7.11406 3.2766C7.84679 3.1334 8.57519 3.31809 9.12537 3.68237C9.66809 4.04176 10.107 4.62839 10.121 5.33276C10.1356 6.06688 9.68807 6.7298 8.86504 7.21645C8.30549 7.54733 8.08784 7.77171 7.99533 7.92076C7.91746 8.04623 7.89863 8.16067 7.89863 8.41686C7.89863 8.72675 7.6474 8.97798 7.3375 8.97798C7.02759 8.97798 6.77638 8.72675 6.77638 8.41686C6.77638 8.11191 6.79198 7.73148 7.0418 7.32896C7.27699 6.95002 7.68031 6.61325 8.29381 6.25046C8.89417 5.89545 9.003 5.557 8.999 5.35505C8.9944 5.12335 8.83972 4.83921 8.50576 4.61809C8.17915 4.40183 7.74769 4.29626 7.32931 4.37803Z" fill="white"/>
<path id="Vector_2" d="M7.61793 11.7837C8.08278 11.7837 8.45962 11.4069 8.45962 10.942C8.45962 10.4772 8.08278 10.1003 7.61793 10.1003C7.15309 10.1003 6.77625 10.4772 6.77625 10.942C6.77625 11.4069 7.15309 11.7837 7.61793 11.7837Z" fill="white"/>
<path id="Vector_3" d="M7.33759 0C3.30887 0 0.0429529 3.26592 0.0429529 7.29464C0.0429529 8.58635 0.379168 9.80102 0.969091 10.8543L0.0760705 13.1912C-0.253064 14.0524 0.539224 14.9211 1.42706 14.6724L4.21853 13.8906C5.16481 14.3388 6.22266 14.5893 7.33759 14.5893C11.3663 14.5893 14.6322 11.3234 14.6322 7.29464C14.6322 3.26592 11.3663 0 7.33759 0ZM1.16521 7.29464C1.16521 3.88572 3.92868 1.12225 7.33759 1.12225C10.7466 1.12225 13.51 3.88572 13.51 7.29464C13.51 10.7036 10.7466 13.467 7.33759 13.467C6.32517 13.467 5.37123 13.2237 4.52948 12.7929L4.33397 12.6928L1.12438 13.5917L2.21196 10.7459L2.06799 10.5105C1.49536 9.57433 1.16521 8.47389 1.16521 7.29464Z" fill="white"/>
<path id="Vector_4" d="M10.6624 17.956C8.45195 17.956 6.47116 16.9728 5.13342 15.4199C5.76531 15.5909 6.42668 15.6902 7.10826 15.7084C8.11312 16.4174 9.33914 16.8337 10.6624 16.8337C11.6748 16.8337 12.6287 16.5904 13.4705 16.1596L13.666 16.0595L16.8756 16.9584L15.7881 14.1125L15.9319 13.8772C16.5046 12.941 16.8348 11.8406 16.8348 10.6613C16.8348 9.36572 16.4356 8.16337 15.7535 7.1705C15.7436 6.48842 15.6527 5.82597 15.4898 5.19238C17.0028 6.52897 17.957 8.48372 17.957 10.6613C17.957 11.9531 17.6208 13.1677 17.0308 14.221L17.9239 16.5579C18.2531 17.4191 17.4608 18.2878 16.573 18.0391L13.7815 17.2573C12.8352 17.7055 11.7773 17.956 10.6624 17.956Z" fill="white"/>
</g>
</g>
</svg>
