<svg width="34" height="34" viewBox="0 0 34 34" fill="none" xmlns="http://www.w3.org/2000/svg">
<g clip-path="url(#clip0_609_636)">
<path d="M17.0001 32.3755C17.595 32.3618 18.166 32.1381 18.6119 31.7441C19.0578 31.35 19.35 30.8109 19.4368 30.2222H14.469C14.5582 30.8269 14.8641 31.3786 15.3297 31.7747C15.7953 32.1708 16.3889 32.3843 17.0001 32.3755Z" fill="#4E5257"/>
<path d="M31.0251 26.5671L30.7039 26.2838C29.793 25.4721 28.9956 24.5413 28.3334 23.5165C27.6102 22.1023 27.1767 20.5578 27.0584 18.9738V14.3082C27.0546 13.7415 27.004 13.1761 26.9073 12.6177C25.3075 12.2888 23.8705 11.4173 22.8396 10.1506C21.8086 8.88384 21.2471 7.29977 21.2501 5.66655V5.07155C20.264 4.58628 19.2046 4.26717 18.1145 4.1271V2.9371C18.1145 2.60271 17.9817 2.28201 17.7452 2.04556C17.5088 1.80911 17.1881 1.67627 16.8537 1.67627C16.5193 1.67627 16.1986 1.80911 15.9621 2.04556C15.7257 2.28201 15.5928 2.60271 15.5928 2.9371V4.17432C13.1521 4.51863 10.9184 5.73431 9.30399 7.59693C7.6896 9.45955 6.80358 11.8433 6.8095 14.3082V18.9738C6.69122 20.5578 6.25774 22.1023 5.5345 23.5165C4.88367 24.5388 4.09913 25.4694 3.20173 26.2838L2.88062 26.5671V29.2304H31.0251V26.5671Z" fill="#4E5257"/>
<path d="M28.3333 10.3888C30.9413 10.3888 33.0555 8.27457 33.0555 5.66656C33.0555 3.05855 30.9413 0.944336 28.3333 0.944336C25.7253 0.944336 23.6111 3.05855 23.6111 5.66656C23.6111 8.27457 25.7253 10.3888 28.3333 10.3888Z" fill="#4E5257"/>
</g>
<defs>
<clipPath id="clip0_609_636">
<rect width="34" height="34" fill="white"/>
</clipPath>
</defs>
</svg>
