<svg width="16" height="16" viewBox="0 0 16 16" fill="none" xmlns="http://www.w3.org/2000/svg">
<g id="document-text">
<path id="Vector" fill-rule="evenodd" clip-rule="evenodd" d="M6.00033 8.3331C5.82351 8.3331 5.65395 8.40333 5.52892 8.52836C5.4039 8.65338 5.33366 8.82295 5.33366 8.99976C5.33366 9.17657 5.4039 9.34614 5.52892 9.47117C5.65395 9.59619 5.82351 9.66643 6.00033 9.66643H10.0003C10.1771 9.66643 10.3467 9.59619 10.4717 9.47117C10.5968 9.34614 10.667 9.17657 10.667 8.99976C10.667 8.82295 10.5968 8.65338 10.4717 8.52836C10.3467 8.40333 10.1771 8.3331 10.0003 8.3331H6.00033ZM6.00033 10.3331C5.82351 10.3331 5.65395 10.4033 5.52892 10.5284C5.4039 10.6534 5.33366 10.823 5.33366 10.9998C5.33366 11.1766 5.4039 11.3461 5.52892 11.4712C5.65395 11.5962 5.82351 11.6664 6.00033 11.6664H10.0003C10.1771 11.6664 10.3467 11.5962 10.4717 11.4712C10.5968 11.3461 10.667 11.1766 10.667 10.9998C10.667 10.823 10.5968 10.6534 10.4717 10.5284C10.3467 10.4033 10.1771 10.3331 10.0003 10.3331H6.00033ZM8.32166 2.3331C8.77433 2.33243 9.17566 2.33176 9.54699 2.4851C9.91766 2.63843 10.201 2.92376 10.5203 3.24376C11.1537 3.8791 11.7877 4.5131 12.423 5.14576C12.743 5.46576 13.0277 5.7491 13.1817 6.11976C13.335 6.4911 13.335 6.8931 13.3337 7.3451C13.331 9.02243 13.3337 10.6998 13.3337 12.3771C13.3337 12.9678 13.3337 13.4771 13.279 13.8851C13.2203 14.3218 13.0877 14.7411 12.7477 15.0804C12.4077 15.4204 11.989 15.5531 11.5523 15.6118C11.1443 15.6664 10.635 15.6664 10.0443 15.6664H5.95633C5.36566 15.6664 4.85633 15.6664 4.44833 15.6118C4.01166 15.5531 3.59233 15.4204 3.25299 15.0804C2.91299 14.7404 2.78033 14.3218 2.72166 13.8851C2.66699 13.4771 2.66699 12.9678 2.66699 12.3771V5.62243C2.66699 5.03176 2.66699 4.52243 2.72166 4.11443C2.78033 3.67776 2.91299 3.25843 3.25299 2.9191C3.59299 2.5791 4.01166 2.44643 4.44833 2.38776C4.85633 2.3331 5.36566 2.3331 5.95633 2.3331C6.74499 2.3331 7.53299 2.33443 8.32166 2.3331Z" fill="white" fill-opacity="0.8"/>
</g>
</svg>
