<svg width="14" height="14" viewBox="0 0 14 14" fill="none" xmlns="http://www.w3.org/2000/svg">
<g id="help-circle">
<path id="Vector" d="M6.99984 12.8333C10.2215 12.8333 12.8332 10.2216 12.8332 6.99996C12.8332 3.7783 10.2215 1.16663 6.99984 1.16663C3.77818 1.16663 1.1665 3.7783 1.1665 6.99996C1.1665 10.2216 3.77818 12.8333 6.99984 12.8333Z" fill="white" fill-opacity="0.8"/>
<path id="Vector_2" d="M5.30273 5.24997C5.43988 4.86011 5.71057 4.53136 6.06687 4.32196C6.42318 4.11256 6.84209 4.03601 7.24942 4.10588C7.65675 4.17575 8.02621 4.38752 8.29236 4.70369C8.55851 5.01986 8.70418 5.42002 8.70357 5.8333C8.70357 6.99997 6.95357 7.5833 6.95357 7.5833" stroke="white" stroke-linecap="round" stroke-linejoin="round"/>
<path id="Vector_3" d="M7 9.91663H7.00583" stroke="white" stroke-width="2" stroke-linecap="round" stroke-linejoin="round"/>
</g>
</svg>
