<?xml version="1.0" encoding="UTF-8"?>
<!DOCTYPE svg PUBLIC "-//W3C//DTD SVG 1.1//EN" "http://www.w3.org/Graphics/SVG/1.1/DTD/svg11.dtd">
<svg xmlns="http://www.w3.org/2000/svg" version="1.1" width="512px" height="512px" style="shape-rendering:geometricPrecision; text-rendering:geometricPrecision; image-rendering:optimizeQuality; fill-rule:evenodd; clip-rule:evenodd" xmlns:xlink="http://www.w3.org/1999/xlink">
<g><path style="opacity:0.986" fill="#020203" d="M 233.5,-0.5 C 248.167,-0.5 262.833,-0.5 277.5,-0.5C 367.555,10.0943 435.388,54.4276 481,132.5C 497.855,164.278 508.022,197.945 511.5,233.5C 511.5,248.167 511.5,262.833 511.5,277.5C 500.906,367.555 456.572,435.388 378.5,481C 346.722,497.855 313.055,508.022 277.5,511.5C 262.833,511.5 248.167,511.5 233.5,511.5C 143.445,500.906 75.612,456.572 30,378.5C 13.1449,346.722 2.97822,313.055 -0.5,277.5C -0.5,262.833 -0.5,248.167 -0.5,233.5C 10.0943,143.445 54.4276,75.612 132.5,30C 164.278,13.1449 197.945,2.97822 233.5,-0.5 Z"/></g>
<g><path style="opacity:1" fill="#a4cbfd" d="M 246.5,15.5 C 247.498,52.6629 247.832,89.9963 247.5,127.5C 216.707,127.683 186.374,124.183 156.5,117C 166.271,88.9396 180.771,63.7729 200,41.5C 211.707,29.5619 225.541,21.0619 241.5,16C 243.134,15.5065 244.801,15.3398 246.5,15.5 Z"/></g>
<g><path style="opacity:1" fill="#51657d" d="M 246.5,15.5 C 246.56,14.9569 246.893,14.6236 247.5,14.5C 248.83,52.3312 248.83,89.9978 247.5,127.5C 247.832,89.9963 247.498,52.6629 246.5,15.5 Z"/></g>
<g><path style="opacity:1" fill="#51657d" d="M 264.5,15.5 C 263.502,52.6629 263.168,89.9963 263.5,127.5C 262.17,89.9978 262.17,52.3312 263.5,14.5C 264.107,14.6236 264.44,14.9569 264.5,15.5 Z"/></g>
<g><path style="opacity:1" fill="#a4cbfd" d="M 264.5,15.5 C 278.087,17.5995 290.087,23.0995 300.5,32C 304.034,35.8689 307.867,39.3689 312,42.5C 315,46.1667 318,49.8333 321,53.5C 327.376,63.0868 333.876,72.5868 340.5,82C 347.696,83.4578 351.196,80.6244 351,73.5C 341.082,53.8236 327.915,36.657 311.5,22C 359.691,32.7616 400.358,56.4282 433.5,93C 412.983,101.339 391.983,108.172 370.5,113.5C 369.833,113.167 369.167,112.833 368.5,112.5C 367.345,107.355 365.012,102.855 361.5,99C 355.437,97.245 351.77,99.4117 350.5,105.5C 351.141,109.59 352.474,113.424 354.5,117C 324.63,124.182 294.297,127.682 263.5,127.5C 263.168,89.9963 263.502,52.6629 264.5,15.5 Z"/></g>
<g><path style="opacity:1" fill="#a2cafb" d="M 195.5,21.5 C 196.873,21.3433 198.207,21.51 199.5,22C 180.143,39.704 164.976,60.5373 154,84.5C 149.874,93.7125 146.04,103.046 142.5,112.5C 141.667,112.833 140.833,113.167 140,113.5C 118.564,108.466 97.7308,101.632 77.5,93C 110.158,58.1702 149.491,34.3369 195.5,21.5 Z"/></g>
<g><path style="opacity:1" fill="#8bb2e9" d="M 79.5,110.5 C 77.0214,113.72 75.188,117.387 74,121.5C 68.6441,138.813 64.8108,156.48 62.5,174.5C 62.5108,176.045 62.8442,177.378 63.5,178.5C 59.959,182.915 57.459,187.915 56,193.5C 55.5001,211.497 55.3334,229.497 55.5,247.5C 42.1667,247.5 28.8333,247.5 15.5,247.5C 15.5,245.5 15.5,243.5 15.5,241.5C 18.2378,191.108 35.0711,146.108 66,106.5C 66.5613,105.978 67.228,105.645 68,105.5C 72.0984,106.805 75.9318,108.472 79.5,110.5 Z"/></g>
<g><path style="opacity:1" fill="#a3cbfd" d="M 495.5,238.5 C 495.5,241.5 495.5,244.5 495.5,247.5C 482.167,247.5 468.833,247.5 455.5,247.5C 455.667,229.497 455.5,211.497 455,193.5C 451.5,180.667 443.333,172.5 430.5,169C 414.543,167.596 398.543,167.096 382.5,167.5C 380.36,154.441 377.36,141.608 373.5,129C 373.833,128.667 374.167,128.333 374.5,128C 398.198,121.432 421.532,114.098 444.5,106C 475.154,144.777 492.154,188.944 495.5,238.5 Z"/></g>
<g><path style="opacity:1" fill="#a4ccfd" d="M 79.5,110.5 C 98.6042,117.368 117.938,123.535 137.5,129C 133.06,141.455 130.06,154.288 128.5,167.5C 113.163,167.333 97.8297,167.5 82.5,168C 75.2802,169.942 68.9469,173.442 63.5,178.5C 62.8442,177.378 62.5108,176.045 62.5,174.5C 64.8108,156.48 68.6441,138.813 74,121.5C 75.188,117.387 77.0214,113.72 79.5,110.5 Z"/></g>
<g><path style="opacity:1" fill="#a3cafc" d="M 151.5,131.5 C 183.408,138.82 215.742,142.487 248.5,142.5C 248.5,150.833 248.5,159.167 248.5,167.5C 213.5,167.5 178.5,167.5 143.5,167.5C 145.537,155.353 148.204,143.353 151.5,131.5 Z"/></g>
<g><path style="opacity:1" fill="#a2c9fb" d="M 351.5,132.5 C 354.711,132.012 357.544,132.679 360,134.5C 363.293,145.336 365.793,156.336 367.5,167.5C 332.5,167.5 297.5,167.5 262.5,167.5C 262.5,159.167 262.5,150.833 262.5,142.5C 292.637,142.078 322.304,138.744 351.5,132.5 Z"/></g>
<g><path style="opacity:1" fill="#e7e5e7" d="M 427.5,183.5 C 314.167,183.5 200.833,183.5 87.5,183.5C 87.5926,203.87 92.0926,223.203 101,241.5C 101.172,234.987 101.672,228.653 102.5,222.5C 102.333,245.169 102.5,267.836 103,290.5C 105.513,294.212 109.013,295.378 113.5,294C 115.607,292.736 116.607,290.903 116.5,288.5C 117.492,281.352 117.825,274.019 117.5,266.5C 139.635,291.24 167.302,306.073 200.5,311C 280.166,311.5 359.833,311.667 439.5,311.5C 439.5,272.833 439.5,234.167 439.5,195.5C 440.665,235.331 440.831,275.331 440,315.5C 437.833,321.667 433.667,325.833 427.5,328C 312.833,328.667 198.167,328.667 83.5,328C 77.3333,325.833 73.1667,321.667 71,315.5C 70.3333,275.5 70.3333,235.5 71,195.5C 73.1407,189.359 77.3074,185.193 83.5,183C 198.334,182.167 313.001,182.334 427.5,183.5 Z"/></g>
<g><path style="opacity:1" fill="#fcfcfc" d="M 427.5,183.5 C 433.869,185.203 437.869,189.203 439.5,195.5C 439.5,234.167 439.5,272.833 439.5,311.5C 359.833,311.667 280.166,311.5 200.5,311C 167.302,306.073 139.635,291.24 117.5,266.5C 117.177,259.978 117.51,253.645 118.5,247.5C 130.151,263.318 142.151,278.818 154.5,294C 158.898,295.378 162.398,294.212 165,290.5C 165.667,267.167 165.667,243.833 165,220.5C 160.239,215.188 155.572,215.188 151,220.5C 150.667,235.167 150.333,249.833 150,264.5C 138.197,248.396 126.03,232.563 113.5,217C 107.805,215.18 104.138,217.013 102.5,222.5C 101.672,228.653 101.172,234.987 101,241.5C 92.0926,223.203 87.5926,203.87 87.5,183.5C 200.833,183.5 314.167,183.5 427.5,183.5 Z"/></g>
<g><path style="opacity:1" fill="#030303" d="M 118.5,247.5 C 118.44,246.957 118.107,246.624 117.5,246.5C 116.501,260.484 116.167,274.484 116.5,288.5C 116.607,290.903 115.607,292.736 113.5,294C 109.013,295.378 105.513,294.212 103,290.5C 102.5,267.836 102.333,245.169 102.5,222.5C 104.138,217.013 107.805,215.18 113.5,217C 126.03,232.563 138.197,248.396 150,264.5C 150.333,249.833 150.667,235.167 151,220.5C 155.572,215.188 160.239,215.188 165,220.5C 165.667,243.833 165.667,267.167 165,290.5C 162.398,294.212 158.898,295.378 154.5,294C 142.151,278.818 130.151,263.318 118.5,247.5 Z"/></g>
<g><path style="opacity:1" fill="#060606" d="M 186.5,215.5 C 203.17,215.333 219.837,215.5 236.5,216C 244.481,219.228 245.481,223.895 239.5,230C 224.837,230.5 210.17,230.667 195.5,230.5C 195.5,236.5 195.5,242.5 195.5,248.5C 208.171,248.333 220.838,248.5 233.5,249C 238.833,253.333 238.833,257.667 233.5,262C 220.838,262.5 208.171,262.667 195.5,262.5C 195.5,268.5 195.5,274.5 195.5,280.5C 210.17,280.333 224.837,280.5 239.5,281C 245.481,287.105 244.481,291.772 236.5,295C 219.833,295.667 203.167,295.667 186.5,295C 184.061,294.226 182.227,292.726 181,290.5C 180.333,267.167 180.333,243.833 181,220.5C 182.406,218.256 184.239,216.59 186.5,215.5 Z"/></g>
<g><path style="opacity:1" fill="#040404" d="M 258.5,216.5 C 262.849,215.577 266.183,216.91 268.5,220.5C 272.484,233.433 276.317,246.433 280,259.5C 283.374,245.383 287.54,231.549 292.5,218C 296.794,215.614 300.627,216.114 304,219.5C 308.406,232.718 312.406,246.052 316,259.5C 319.622,245.725 323.622,232.059 328,218.5C 336.177,214.113 340.51,216.446 341,225.5C 335,246.833 329,268.167 323,289.5C 319.797,294.916 315.464,295.916 310,292.5C 305.844,278.874 301.844,265.207 298,251.5C 294.003,264.817 290.003,278.15 286,291.5C 282.341,295.115 278.341,295.448 274,292.5C 267.462,270.554 261.129,248.554 255,226.5C 253.756,222.191 254.923,218.858 258.5,216.5 Z"/></g>
<g><path style="opacity:1" fill="#060606" d="M 371.5,216.5 C 384.495,214.637 396.495,217.137 407.5,224C 413.329,229.164 414.829,235.331 412,242.5C 409.083,244.393 405.916,244.893 402.5,244C 400.591,240.399 398.258,237.066 395.5,234C 385.929,230.35 376.596,230.684 367.5,235C 366.426,235.739 365.759,236.739 365.5,238C 366.439,239.944 367.773,241.611 369.5,243C 379.693,247.064 390.026,250.731 400.5,254C 414.965,262.502 417.298,273.502 407.5,287C 396.492,294.028 384.492,296.361 371.5,294C 361.671,292.167 354.838,286.667 351,277.5C 350.027,268.64 353.86,265.306 362.5,267.5C 364.703,269.295 365.869,271.629 366,274.5C 368.258,276.43 370.758,277.93 373.5,279C 381.017,280.073 388.35,279.406 395.5,277C 398.932,274.633 399.265,271.966 396.5,269C 388.058,265.408 379.392,262.408 370.5,260C 362.159,257.317 355.992,252.151 352,244.5C 349.162,235.318 351.662,227.818 359.5,222C 363.475,219.854 367.475,218.02 371.5,216.5 Z"/></g>
<g><path style="opacity:1" fill="#475c78" d="M 15.5,241.5 C 15.5,243.5 15.5,245.5 15.5,247.5C 28.8333,247.5 42.1667,247.5 55.5,247.5C 42.0102,248.496 28.3435,248.829 14.5,248.5C 14.1984,245.941 14.5318,243.607 15.5,241.5 Z"/></g>
<g><path style="opacity:1" fill="#546882" d="M 495.5,238.5 C 496.479,241.625 496.813,244.958 496.5,248.5C 482.656,248.829 468.99,248.496 455.5,247.5C 468.833,247.5 482.167,247.5 495.5,247.5C 495.5,244.5 495.5,241.5 495.5,238.5 Z"/></g>
<g><path style="opacity:1" fill="#465a75" d="M 55.5,263.5 C 42.1667,263.5 28.8333,263.5 15.5,263.5C 15.5,266.167 15.5,268.833 15.5,271.5C 14.5233,268.713 14.19,265.713 14.5,262.5C 28.3435,262.171 42.0102,262.504 55.5,263.5 Z"/></g>
<g><path style="opacity:1" fill="#52667f" d="M 455.5,263.5 C 468.99,262.504 482.656,262.171 496.5,262.5C 496.81,265.713 496.477,268.713 495.5,271.5C 495.5,268.833 495.5,266.167 495.5,263.5C 482.167,263.5 468.833,263.5 455.5,263.5 Z"/></g>
<g><path style="opacity:1" fill="#8bb3e9" d="M 55.5,263.5 C 55.3334,279.837 55.5001,296.17 56,312.5C 57.684,328.852 66.5174,339.019 82.5,343C 90.4931,343.5 98.4931,343.666 106.5,343.5C 114.547,356.206 124.047,367.873 135,378.5C 135.464,377.906 135.631,377.239 135.5,376.5C 136.306,377.997 136.972,379.664 137.5,381.5C 136.975,382.192 136.308,382.692 135.5,383C 112.061,389.37 89.0606,396.704 66.5,405C 35.6401,365.938 18.6401,321.438 15.5,271.5C 15.5,268.833 15.5,266.167 15.5,263.5C 28.8333,263.5 42.1667,263.5 55.5,263.5 Z"/></g>
<g><path style="opacity:1" fill="#a3cbfd" d="M 455.5,263.5 C 468.833,263.5 482.167,263.5 495.5,263.5C 495.5,266.167 495.5,268.833 495.5,271.5C 492.36,321.438 475.36,365.938 444.5,405C 421.516,396.896 398.183,389.563 374.5,383C 374.043,382.586 373.709,382.086 373.5,381.5C 377.448,369.044 380.448,356.377 382.5,343.5C 398.543,343.904 414.543,343.404 430.5,342C 445.602,337.9 453.769,328.067 455,312.5C 455.5,296.17 455.667,279.837 455.5,263.5 Z"/></g>
<g><path style="opacity:1" fill="#454445" d="M 118.5,247.5 C 117.51,253.645 117.177,259.978 117.5,266.5C 117.825,274.019 117.492,281.352 116.5,288.5C 116.167,274.484 116.501,260.484 117.5,246.5C 118.107,246.624 118.44,246.957 118.5,247.5 Z"/></g>
<g><path style="opacity:1" fill="#374556" d="M 247.5,343.5 C 212.663,343.168 177.996,343.502 143.5,344.5C 142.957,344.44 142.624,344.107 142.5,343.5C 177.664,342.17 212.664,342.17 247.5,343.5 Z"/></g>
<g><path style="opacity:1" fill="#374556" d="M 263.5,343.5 C 298.336,342.17 333.336,342.17 368.5,343.5C 368.376,344.107 368.043,344.44 367.5,344.5C 333.004,343.502 298.337,343.168 263.5,343.5 Z"/></g>
<g><path style="opacity:1" fill="#a1c9fa" d="M 106.5,343.5 C 113.833,343.5 121.167,343.5 128.5,343.5C 130.45,354.581 132.783,365.581 135.5,376.5C 135.631,377.239 135.464,377.906 135,378.5C 124.047,367.873 114.547,356.206 106.5,343.5 Z"/></g>
<g><path style="opacity:1" fill="#a3cbfc" d="M 247.5,343.5 C 248.493,351.65 248.826,359.983 248.5,368.5C 239.494,368.334 230.494,368.5 221.5,369C 198.055,371.539 174.722,374.706 151.5,378.5C 148.254,367.328 145.587,355.995 143.5,344.5C 177.996,343.502 212.663,343.168 247.5,343.5 Z"/></g>
<g><path style="opacity:1" fill="#a2cafb" d="M 263.5,343.5 C 298.337,343.168 333.004,343.502 367.5,344.5C 365.408,356.001 362.741,367.334 359.5,378.5C 338.272,375.048 316.939,372.215 295.5,370C 284.491,369.583 273.491,369.083 262.5,368.5C 262.174,359.983 262.507,351.65 263.5,343.5 Z"/></g>
<g><path style="opacity:1" fill="#a3cbfd" d="M 247.5,383.5 C 247.667,403.169 247.5,422.836 247,442.5C 215.209,433.686 186.042,419.686 159.5,400.5C 158.261,398.293 157.761,395.959 158,393.5C 187.404,386.743 217.237,383.41 247.5,383.5 Z"/></g>
<g><path style="opacity:1" fill="#a4cbfd" d="M 263.5,383.5 C 293.587,383.393 323.253,386.726 352.5,393.5C 347.162,413.521 338.495,432.188 326.5,449.5C 305.413,450.059 284.413,449.059 263.5,446.5C 263.5,425.5 263.5,404.5 263.5,383.5 Z"/></g>
<g><path style="opacity:1" fill="#89b1e7" d="M 247.5,383.5 C 248.498,420.663 248.832,457.996 248.5,495.5C 241.055,495.378 234.055,493.544 227.5,490C 212.831,481.664 200.331,470.831 190,457.5C 183.624,447.913 177.124,438.413 170.5,429C 162.502,428.001 159.335,431.501 161,439.5C 170.793,458.961 183.96,475.795 200.5,490C 152.075,478.623 111.075,454.623 77.5,418C 97.8709,409.265 118.871,402.432 140.5,397.5C 141.442,397.608 142.275,397.941 143,398.5C 144.068,403.05 145.902,407.217 148.5,411C 157.809,413.525 161.476,410.025 159.5,400.5C 186.042,419.686 215.209,433.686 247,442.5C 247.5,422.836 247.667,403.169 247.5,383.5 Z"/></g>
<g><path style="opacity:1" fill="#a3cbfd" d="M 430.5,416.5 C 430.586,417.496 430.252,418.329 429.5,419C 403.784,433.63 376.451,442.463 347.5,445.5C 354.795,431.239 361.295,416.572 367,401.5C 367.481,399.522 368.647,398.189 370.5,397.5C 390.892,402.631 410.892,408.964 430.5,416.5 Z"/></g>
<g><path style="opacity:1" fill="#8ab2e8" d="M 430.5,416.5 C 431.473,416.987 432.473,417.487 433.5,418C 400.358,454.572 359.691,478.238 311.5,489C 318.333,483.5 324.5,477.333 330,470.5C 335.856,462.1 341.689,453.767 347.5,445.5C 376.451,442.463 403.784,433.63 429.5,419C 430.252,418.329 430.586,417.496 430.5,416.5 Z"/></g>
<g><path style="opacity:1" fill="#495d77" d="M 263.5,383.5 C 263.5,404.5 263.5,425.5 263.5,446.5C 263.17,463.009 263.504,479.342 264.5,495.5C 264.44,496.043 264.107,496.376 263.5,496.5C 262.17,458.669 262.17,421.002 263.5,383.5 Z"/></g>
<g><path style="opacity:1" fill="#8bb3e9" d="M 263.5,446.5 C 284.413,449.059 305.413,450.059 326.5,449.5C 314.441,468.056 298.441,482.223 278.5,492C 273.977,493.797 269.31,494.964 264.5,495.5C 263.504,479.342 263.17,463.009 263.5,446.5 Z"/></g>
</svg>
