<svg width="14" height="14" viewBox="0 0 14 14" fill="none" xmlns="http://www.w3.org/2000/svg">
<g id="notebook">
<path id="Vector" fill-rule="evenodd" clip-rule="evenodd" d="M8.1665 12.8333H2.9165C2.45238 12.8333 2.00726 12.6489 1.67907 12.3207C1.35088 11.9925 1.1665 11.5474 1.1665 11.0833V2.91663C1.1665 2.4525 1.35088 2.00738 1.67907 1.67919C2.00726 1.351 2.45238 1.16663 2.9165 1.16663H11.6665C12.1306 1.16663 12.5758 1.351 12.9039 1.67919C13.2321 2.00738 13.4165 2.4525 13.4165 2.91663V11.0833C13.4165 11.5474 13.2321 11.9925 12.9039 12.3207C12.5758 12.6489 12.1306 12.8333 11.6665 12.8333H8.1665ZM3.01567 11.6666C2.9515 11.484 2.9165 11.2875 2.9165 11.0833V2.91663C2.9165 2.71246 2.9515 2.51588 3.01567 2.33329H2.9165C2.76179 2.33329 2.61342 2.39475 2.50402 2.50415C2.39463 2.61354 2.33317 2.76192 2.33317 2.91663V11.0833C2.33317 11.238 2.39463 11.3864 2.50402 11.4958C2.61342 11.6052 2.76179 11.6666 2.9165 11.6666H3.01567ZM5.24984 4.67538C5.24968 4.59877 5.26462 4.52289 5.29379 4.45206C5.32297 4.38122 5.36581 4.31683 5.41987 4.26256C5.47393 4.20828 5.53815 4.16518 5.60886 4.13573C5.67957 4.10627 5.7554 4.09103 5.832 4.09088L10.4987 4.08329C10.6534 4.08298 10.8019 4.14415 10.9115 4.25332C11.0211 4.3625 11.0829 4.51075 11.0832 4.66546C11.0835 4.82017 11.0223 4.96867 10.9131 5.07828C10.804 5.1879 10.6557 5.24965 10.501 5.24996L5.83434 5.25754C5.75773 5.2577 5.68185 5.24276 5.61102 5.21359C5.54018 5.18441 5.47579 5.14157 5.42152 5.08751C5.36724 5.03345 5.32414 4.96923 5.29469 4.89852C5.26523 4.8278 5.24999 4.75198 5.24984 4.67538ZM5.24984 7.01571C5.24968 6.8611 5.31091 6.71275 5.42007 6.60327C5.52923 6.49378 5.6774 6.4321 5.832 6.43179L10.4987 6.42421C10.6534 6.4239 10.8019 6.48506 10.9115 6.59424C11.0211 6.70342 11.0829 6.85167 11.0832 7.00638C11.0835 7.16109 11.0223 7.30958 10.9131 7.4192C10.804 7.52881 10.6557 7.59057 10.501 7.59088L5.83434 7.59846C5.75773 7.59861 5.68185 7.58368 5.61102 7.5545C5.54018 7.52533 5.47579 7.48249 5.42152 7.42843C5.36724 7.37437 5.32414 7.31015 5.29469 7.23944C5.26523 7.16872 5.24999 7.09231 5.24984 7.01571ZM5.24984 9.34904C5.24968 9.19444 5.31091 9.04609 5.42007 8.9366C5.52923 8.82711 5.6774 8.76544 5.832 8.76513L10.4987 8.75754C10.6534 8.75723 10.8019 8.8184 10.9115 8.92757C11.0211 9.03675 11.0829 9.185 11.0832 9.33971C11.0835 9.49442 11.0223 9.64292 10.9131 9.75253C10.804 9.86215 10.6557 9.9239 10.501 9.92421L5.83434 9.93179C5.75773 9.93195 5.68185 9.91701 5.61102 9.88784C5.54018 9.85866 5.47579 9.81582 5.42152 9.76176C5.36724 9.70771 5.32414 9.64349 5.29469 9.57277C5.26523 9.50206 5.24999 9.42565 5.24984 9.34904Z" fill="white" fill-opacity="0.8"/>
</g>
</svg>
