<?xml version="1.0" encoding="UTF-8"?>
<!DOCTYPE svg PUBLIC "-//W3C//DTD SVG 1.1//EN" "http://www.w3.org/Graphics/SVG/1.1/DTD/svg11.dtd">
<svg xmlns="http://www.w3.org/2000/svg" version="1.1" width="512px" height="512px" style="shape-rendering:geometricPrecision; text-rendering:geometricPrecision; image-rendering:optimizeQuality; fill-rule:evenodd; clip-rule:evenodd" xmlns:xlink="http://www.w3.org/1999/xlink">
<g><path style="opacity:0.991" fill="#d0d2d3" d="M 399.5,25.5 C 426.124,22.7703 450.124,29.2703 471.5,45C 492.82,65.3517 494.987,87.5183 478,111.5C 455.046,133.892 427.546,146.392 395.5,149C 398.5,145.333 401.5,141.667 404.5,138C 385.638,136.383 368.638,130.05 353.5,119C 334.095,102.545 329.595,82.7118 340,59.5C 348.735,46.8803 360.235,37.7136 374.5,32C 382.762,29.0192 391.095,26.8525 399.5,25.5 Z"/></g>
<g><path style="opacity:0.98" fill="#36bbfe" d="M 256.5,58.5 C 256.5,74.1667 256.5,89.8333 256.5,105.5C 252.963,105.689 249.63,105.023 246.5,103.5C 234.893,97.2142 230.727,87.5475 234,74.5C 238,64.3449 245.5,59.0116 256.5,58.5 Z"/></g>
<g><path style="opacity:0.98" fill="#2f7de2" d="M 256.5,58.5 C 276.37,60.8926 283.87,71.8926 279,91.5C 277.037,96.9563 273.537,100.956 268.5,103.5C 264.616,104.793 260.616,105.459 256.5,105.5C 256.5,89.8333 256.5,74.1667 256.5,58.5 Z"/></g>
<g><path style="opacity:1" fill="#1a3165" d="M 367.5,69.5 C 379.54,70.0238 384.04,76.0238 381,87.5C 372.992,95.9937 365.992,95.327 360,85.5C 358.27,78.0934 360.77,72.7601 367.5,69.5 Z"/></g>
<g><path style="opacity:1" fill="#1a3165" d="M 408.5,69.5 C 420.54,70.0238 425.04,76.0238 422,87.5C 413.992,95.9937 406.992,95.327 401,85.5C 399.27,78.0934 401.77,72.7601 408.5,69.5 Z"/></g>
<g><path style="opacity:1" fill="#1b3165" d="M 449.5,69.5 C 461.54,70.0238 466.04,76.0238 463,87.5C 455.507,95.7456 448.507,95.4123 442,86.5C 439.785,78.6005 442.285,72.9338 449.5,69.5 Z"/></g>
<g><path style="opacity:1" fill="#01052c" d="M 268.5,103.5 C 268.5,111.833 268.5,120.167 268.5,128.5C 266.958,129.301 265.292,129.634 263.5,129.5C 261.393,128.532 259.059,128.198 256.5,128.5C 256.5,120.833 256.5,113.167 256.5,105.5C 260.616,105.459 264.616,104.793 268.5,103.5 Z"/></g>
<g><path style="opacity:0.932" fill="#171a3b" d="M 246.5,103.5 C 249.63,105.023 252.963,105.689 256.5,105.5C 256.5,113.167 256.5,120.833 256.5,128.5C 253.167,128.5 249.833,128.5 246.5,128.5C 246.5,120.167 246.5,111.833 246.5,103.5 Z"/></g>
<g><path style="opacity:0.979" fill="#36bcfe" d="M 246.5,128.5 C 249.625,129.479 252.958,129.813 256.5,129.5C 256.5,134.5 256.5,139.5 256.5,144.5C 246.652,144.173 236.986,144.506 227.5,145.5C 224.5,145.5 221.5,145.5 218.5,145.5C 218.441,141.452 220.108,138.285 223.5,136C 230.776,132.186 238.442,129.686 246.5,128.5 Z"/></g>
<g><path style="opacity:0.855" fill="#2872b3" d="M 246.5,128.5 C 249.833,128.5 253.167,128.5 256.5,128.5C 259.059,128.198 261.393,128.532 263.5,129.5C 261.5,129.5 259.5,129.5 257.5,129.5C 257.5,134.5 257.5,139.5 257.5,144.5C 257.167,144.5 256.833,144.5 256.5,144.5C 256.5,139.5 256.5,134.5 256.5,129.5C 252.958,129.813 249.625,129.479 246.5,128.5 Z"/></g>
<g><path style="opacity:0.984" fill="#307ce3" d="M 268.5,128.5 C 278.459,129.54 287.293,133.206 295,139.5C 296.009,141.025 296.509,142.692 296.5,144.5C 283.5,144.5 270.5,144.5 257.5,144.5C 257.5,139.5 257.5,134.5 257.5,129.5C 259.5,129.5 261.5,129.5 263.5,129.5C 265.292,129.634 266.958,129.301 268.5,128.5 Z"/></g>
<g><path style="opacity:0.957" fill="#87c1e5" d="M 227.5,145.5 C 236.986,144.506 246.652,144.173 256.5,144.5C 256.833,144.5 257.167,144.5 257.5,144.5C 270.5,144.5 283.5,144.5 296.5,144.5C 296.5,144.833 296.5,145.167 296.5,145.5C 283.5,145.5 270.5,145.5 257.5,145.5C 257.821,151.026 257.488,156.36 256.5,161.5C 256.5,156.167 256.5,150.833 256.5,145.5C 246.833,145.5 237.167,145.5 227.5,145.5 Z"/></g>
<g><path style="opacity:0.996" fill="#e6e8ea" d="M 218.5,145.5 C 221.5,145.5 224.5,145.5 227.5,145.5C 237.167,145.5 246.833,145.5 256.5,145.5C 256.5,150.833 256.5,156.167 256.5,161.5C 256.5,170.167 256.5,178.833 256.5,187.5C 244.322,187.172 232.322,187.505 220.5,188.5C 214.788,188.313 209.121,188.646 203.5,189.5C 187.797,190.522 172.13,192.022 156.5,194C 133.601,203.628 120.767,220.795 118,245.5C 116.774,255.797 116.274,266.13 116.5,276.5C 116.308,290.61 117.475,304.61 120,318.5C 121.907,323.313 124.074,327.98 126.5,332.5C 131.833,341.167 138.833,348.167 147.5,353.5C 150.923,355.543 154.59,357.043 158.5,358C 182.756,360.828 207.09,362.662 231.5,363.5C 239.65,364.493 247.983,364.826 256.5,364.5C 256.5,378.5 256.5,392.5 256.5,406.5C 249.978,406.177 243.645,406.51 237.5,407.5C 208.073,406.416 178.74,403.916 149.5,400C 123.088,393.203 102.921,378.037 89,354.5C 85.3212,348.148 82.4878,341.481 80.5,334.5C 71.331,295.129 71.331,255.796 80.5,216.5C 90.55,186.949 110.05,166.282 139,154.5C 143.7,152.783 148.533,151.617 153.5,151C 175.077,148.054 196.744,146.22 218.5,145.5 Z"/></g>
<g><path style="opacity:0.997" fill="#d0d2d3" d="M 296.5,145.5 C 321.678,146.293 346.678,148.793 371.5,153C 402.028,164.695 423.028,185.862 434.5,216.5C 439.109,235.695 441.109,255.195 440.5,275C 441.169,295.154 439.169,314.987 434.5,334.5C 423.928,365.07 403.595,386.07 373.5,397.5C 365.222,399.213 356.888,400.713 348.5,402C 317.9,404.972 287.233,406.472 256.5,406.5C 256.5,392.5 256.5,378.5 256.5,364.5C 247.983,364.826 239.65,364.493 231.5,363.5C 272.978,364.782 314.312,362.949 355.5,358C 363.51,356.163 370.51,352.496 376.5,347C 391.223,332.363 398.389,314.53 398,293.5C 399.267,273.707 398.267,254.04 395,234.5C 389.337,217.654 378.837,204.821 363.5,196C 358.968,194.378 354.301,193.378 349.5,193C 336.147,191.862 322.814,190.695 309.5,189.5C 291.875,188.54 274.209,187.874 256.5,187.5C 256.5,178.833 256.5,170.167 256.5,161.5C 257.488,156.36 257.821,151.026 257.5,145.5C 270.5,145.5 283.5,145.5 296.5,145.5 Z"/></g>
<g><path style="opacity:1" fill="#061942" d="M 220.5,188.5 C 237.837,188.333 255.17,188.5 272.5,189C 251.632,210.035 230.632,230.868 209.5,251.5C 206.554,233.167 195.888,226.667 177.5,232C 171.382,235.454 167.549,240.621 166,247.5C 165.5,261.496 165.333,275.496 165.5,289.5C 165.663,291.857 165.497,294.19 165,296.5C 153.167,308.333 141.333,320.167 129.5,332C 128.552,332.483 127.552,332.649 126.5,332.5C 124.074,327.98 121.907,323.313 120,318.5C 117.475,304.61 116.308,290.61 116.5,276.5C 145.833,247.833 174.833,218.833 203.5,189.5C 209.121,188.646 214.788,188.313 220.5,188.5 Z"/></g>
<g><path style="opacity:1" fill="#183064" d="M 220.5,188.5 C 232.322,187.505 244.322,187.172 256.5,187.5C 274.209,187.874 291.875,188.54 309.5,189.5C 276.5,223.167 243.167,256.5 209.5,289.5C 209.5,276.833 209.5,264.167 209.5,251.5C 230.632,230.868 251.632,210.035 272.5,189C 255.17,188.5 237.837,188.333 220.5,188.5 Z"/></g>
<g><path style="opacity:1" fill="#061942" d="M 309.5,189.5 C 322.814,190.695 336.147,191.862 349.5,193C 354.301,193.378 358.968,194.378 363.5,196C 378.837,204.821 389.337,217.654 395,234.5C 398.267,254.04 399.267,273.707 398,293.5C 398.389,314.53 391.223,332.363 376.5,347C 370.51,352.496 363.51,356.163 355.5,358C 314.312,362.949 272.978,364.782 231.5,363.5C 207.09,362.662 182.756,360.828 158.5,358C 154.59,357.043 150.923,355.543 147.5,353.5C 147.369,352.761 147.536,352.094 148,351.5C 161.702,337.965 175.202,324.299 188.5,310.5C 201.755,309.912 208.755,302.912 209.5,289.5C 243.167,256.5 276.5,223.167 309.5,189.5 Z"/></g>
<g><path style="opacity:1" fill="#183064" d="M 203.5,189.5 C 174.833,218.833 145.833,247.833 116.5,276.5C 116.274,266.13 116.774,255.797 118,245.5C 120.767,220.795 133.601,203.628 156.5,194C 172.13,192.022 187.797,190.522 203.5,189.5 Z"/></g>
<g><path style="opacity:0.988" fill="#37bcfe" d="M 80.5,216.5 C 71.331,255.796 71.331,295.129 80.5,334.5C 67.0631,333.621 55.8965,327.954 47,317.5C 44.2957,312.875 42.9623,307.875 43,302.5C 42.1138,281.806 42.4471,261.139 44,240.5C 46.7158,233.119 51.5491,227.619 58.5,224C 65.209,219.597 72.5424,217.097 80.5,216.5 Z"/></g>
<g><path style="opacity:0.986" fill="#317de2" d="M 434.5,216.5 C 464.674,224.967 476.007,244.8 468.5,276C 468.566,287.533 468.066,299.033 467,310.5C 465.733,314.869 463.567,318.703 460.5,322C 453.005,328.581 444.338,332.747 434.5,334.5C 439.169,314.987 441.169,295.154 440.5,275C 441.109,255.195 439.109,235.695 434.5,216.5 Z"/></g>
<g><path style="opacity:1" fill="#35bafd" d="M 209.5,251.5 C 209.5,264.167 209.5,276.833 209.5,289.5C 208.755,302.912 201.755,309.912 188.5,310.5C 174.126,310.791 166.459,303.791 165.5,289.5C 165.333,275.496 165.5,261.496 166,247.5C 167.549,240.621 171.382,235.454 177.5,232C 195.888,226.667 206.554,233.167 209.5,251.5 Z"/></g>
<g><path style="opacity:1" fill="#35bafc" d="M 317.5,231.5 C 324.589,231.116 331.589,231.616 338.5,233C 343.116,235.618 346.283,239.451 348,244.5C 349.983,261.829 349.983,279.163 348,296.5C 344.492,306.933 337.158,311.599 326,310.5C 316.835,311.005 310.502,307.005 307,298.5C 304.157,280.881 303.824,263.214 306,245.5C 307.873,239.136 311.706,234.469 317.5,231.5 Z"/></g>
<g><path style="opacity:1" fill="#183064" d="M 165.5,289.5 C 166.459,303.791 174.126,310.791 188.5,310.5C 175.202,324.299 161.702,337.965 148,351.5C 147.536,352.094 147.369,352.761 147.5,353.5C 138.833,348.167 131.833,341.167 126.5,332.5C 127.552,332.649 128.552,332.483 129.5,332C 141.333,320.167 153.167,308.333 165,296.5C 165.497,294.19 165.663,291.857 165.5,289.5 Z"/></g>
<g><path style="opacity:0.984" fill="#9facba" d="M 373.5,397.5 C 360.898,403.595 347.898,408.928 334.5,413.5C 302.21,415.752 269.876,416.752 237.5,416.5C 237.5,413.5 237.5,410.5 237.5,407.5C 243.645,406.51 249.978,406.177 256.5,406.5C 287.233,406.472 317.9,404.972 348.5,402C 356.888,400.713 365.222,399.213 373.5,397.5 Z"/></g>
<g><path style="opacity:0.985" fill="#d0d2d3" d="M 334.5,413.5 C 302.562,427.296 270.229,440.296 237.5,452.5C 237.5,440.5 237.5,428.5 237.5,416.5C 269.876,416.752 302.21,415.752 334.5,413.5 Z"/></g>
</svg>
