<svg width="31" height="26" viewBox="0 0 31 26" fill="none" xmlns="http://www.w3.org/2000/svg">
<g id="&#240;&#159;&#166;&#134; icon &#34;robot face ai artificial intelligence&#34;">
<g id="Group">
<path id="Vector" fill-rule="evenodd" clip-rule="evenodd" d="M8.93395 10.5882C7.95934 10.5882 7.16925 11.3783 7.16925 12.3529C7.16925 13.3275 7.95934 14.1176 8.93395 14.1176C9.90856 14.1176 10.6987 13.3275 10.6987 12.3529C10.6987 11.3783 9.90856 10.5882 8.93395 10.5882ZM5.40454 12.3529C5.40454 10.4036 6.98471 8.82349 8.93395 8.82349C10.8832 8.82349 12.4634 10.4036 12.4634 12.3529C12.4634 14.3022 10.8832 15.8823 8.93395 15.8823C6.98471 15.8823 5.40454 14.3022 5.40454 12.3529Z" fill="white"/>
<path id="Vector_2" fill-rule="evenodd" clip-rule="evenodd" d="M22.8163 10.5882C21.8416 10.5882 21.0516 11.3783 21.0516 12.3529C21.0516 13.3275 21.8416 14.1176 22.8163 14.1176C23.7909 14.1176 24.581 13.3275 24.581 12.3529C24.581 11.3783 23.7909 10.5882 22.8163 10.5882ZM19.2869 12.3529C19.2869 10.4036 20.867 8.82349 22.8163 8.82349C24.7656 8.82349 26.3457 10.4036 26.3457 12.3529C26.3457 14.3022 24.7656 15.8823 22.8163 15.8823C20.867 15.8823 19.2869 14.3022 19.2869 12.3529Z" fill="white"/>
<path id="Vector_3" fill-rule="evenodd" clip-rule="evenodd" d="M12.3457 18.5295C12.833 18.5295 13.2281 18.9247 13.2281 19.4119L13.2286 19.4167C13.2286 19.4167 13.2306 19.4248 13.2341 19.4334C13.2411 19.4507 13.2583 19.4834 13.2967 19.5289C13.3772 19.624 13.5283 19.7475 13.7741 19.8705C14.2663 20.1165 15.0078 20.2942 15.8751 20.2942C16.7425 20.2942 17.484 20.1165 17.9762 19.8705C18.222 19.7475 18.3731 19.624 18.4536 19.5289C18.492 19.4834 18.5091 19.4507 18.5162 19.4334C18.5197 19.4248 18.5217 19.4167 18.5217 19.4167L18.5222 19.4119C18.5222 18.9247 18.9173 18.5295 19.4046 18.5295C19.8918 18.5295 20.2869 18.9247 20.2869 19.4119C20.2869 20.4135 19.4979 21.0827 18.7654 21.4489C17.9801 21.8415 16.9571 22.059 15.8751 22.059C14.7932 22.059 13.7702 21.8415 12.9849 21.4489C12.2524 21.0827 11.4634 20.4135 11.4634 19.4119C11.4634 18.9247 11.8584 18.5295 12.3457 18.5295Z" fill="white"/>
<path id="Vector_4" fill-rule="evenodd" clip-rule="evenodd" d="M22.9338 0.882353V4.41176H8.81618V0.882353C8.81618 0.395047 8.42113 0 7.93382 0C7.44652 0 7.05147 0.395047 7.05147 0.882353V4.41176H5.28676C2.85022 4.41176 0.875 6.38698 0.875 8.82353V21.1765C0.875 23.613 2.85022 25.5882 5.28676 25.5882H26.4632C28.8998 25.5882 30.875 23.613 30.875 21.1765V8.82353C30.875 6.38698 28.8998 4.41176 26.4632 4.41176H24.6985V0.882353C24.6985 0.395047 24.3034 0 23.8162 0C23.3289 0 22.9338 0.395047 22.9338 0.882353ZM5.28676 6.17647C3.82483 6.17647 2.63971 7.36159 2.63971 8.82353V21.1765C2.63971 22.6384 3.82483 23.8235 5.28676 23.8235H26.4632C27.9251 23.8235 29.1103 22.6384 29.1103 21.1765V8.82353C29.1103 7.36159 27.9251 6.17647 26.4632 6.17647H5.28676Z" fill="white"/>
</g>
</g>
</svg>
