<svg width="33" height="33" viewBox="0 0 33 33" fill="none" xmlns="http://www.w3.org/2000/svg">
<g id="&#240;&#159;&#166;&#134; icon &#34;rocket&#34;">
<path id="Vector" d="M22.0138 14.6252C19.8434 14.6252 18.0762 12.8021 18.0762 10.5631C18.0762 8.32404 19.8434 6.50098 22.0138 6.50098C24.1842 6.50098 25.9514 8.32404 25.9514 10.5631C25.9514 12.8021 24.1842 14.6252 22.0138 14.6252ZM22.0138 8.12581C20.7112 8.12581 19.6512 9.21933 19.6512 10.5631C19.6512 11.9068 20.7112 13.0003 22.0138 13.0003C23.3164 13.0003 24.3764 11.9068 24.3764 10.5631C24.3764 9.21933 23.3164 8.12581 22.0138 8.12581Z" fill="white"/>
<path id="Vector_2" d="M1.53814 32.4983C1.33339 32.4983 1.13178 32.4155 0.980577 32.2611C0.764796 32.0385 0.692344 31.7054 0.797872 31.4097C3.22187 24.535 5.7703 21.0481 8.3707 21.0481C9.2291 21.0481 10.0308 21.4283 10.7569 22.1757C11.9035 23.3586 11.9445 24.5366 11.7775 25.3165C11.2515 27.7668 7.89661 30.1667 1.80748 32.4512C1.71927 32.4837 1.62792 32.4983 1.53814 32.4983ZM8.37228 22.6713C7.59263 22.6713 6.67438 23.3765 5.71832 24.7105C4.77802 26.0217 3.83299 27.8903 2.90214 30.2788C5.00482 29.4063 6.69485 28.5207 7.94071 27.6384C9.62129 26.4474 10.119 25.5261 10.2403 24.964C10.3616 24.4018 10.1663 23.8639 9.64334 23.3245C9.21808 22.8858 8.80226 22.6729 8.3707 22.6729L8.37228 22.6713Z" fill="white"/>
<path id="Vector_3" d="M31.4641 0.00162484C27.3768 0.00162484 23.7353 0.716553 20.6372 2.12691C18.0841 3.2903 15.8979 4.92163 14.1386 6.97868C13.8109 7.36214 13.507 7.75047 13.225 8.14044C11.8673 8.23305 10.4781 8.79037 9.09211 9.79777C7.9187 10.6492 6.74056 11.8288 5.58763 13.3025C3.65032 15.7788 2.45958 18.2209 2.40918 18.3233C2.2375 18.6791 2.33988 19.1113 2.65174 19.3437C2.79034 19.4477 2.95257 19.4981 3.11323 19.4981C3.31483 19.4981 3.51644 19.4184 3.66922 19.2624C3.67709 19.2543 4.42997 18.4907 5.71363 17.7416C6.77206 17.1242 8.40381 16.3979 10.3773 16.2695C10.8766 17.5872 12.3052 19.1633 12.9903 19.8701C13.6755 20.5769 15.2033 22.0507 16.4807 22.5657C16.3562 24.6017 15.6522 26.285 15.0537 27.3769C14.326 28.7028 13.5873 29.4778 13.581 29.4843C13.3085 29.7654 13.2739 30.2106 13.4991 30.5339C13.6519 30.7517 13.8913 30.8719 14.1386 30.8719C14.2583 30.8719 14.378 30.8443 14.4898 30.7858C14.589 30.7338 16.9563 29.5054 19.3567 27.5069C20.7853 26.3175 21.9287 25.1021 22.7541 23.8916C23.7306 22.4601 24.2693 21.0286 24.3606 19.628C24.7371 19.3388 25.1135 19.0252 25.4868 18.6856C27.4808 16.8707 29.0621 14.6154 30.1899 11.9816C31.557 8.78712 32.25 5.02887 32.25 0.812419V0H31.4625L31.4641 0.00162484ZM5.64433 15.938C7.14535 13.6909 9.44019 10.9043 12.0264 10.0285C11.0042 11.8759 10.475 13.5723 10.2844 14.6479C8.45894 14.7633 6.88546 15.3108 5.64433 15.938ZM16.8051 27.4451C17.4131 26.1648 17.9439 24.5432 18.0541 22.6616C19.0952 22.465 20.7412 21.9191 22.5304 20.8662C21.6799 23.5293 18.9818 25.8967 16.8051 27.4451ZM24.4457 17.4686C21.1696 20.4502 17.7769 21.1245 17.2887 21.1245C17.2855 21.1245 16.9626 21.118 16.0932 20.486C15.4868 20.0456 14.7796 19.4184 14.1055 18.723C13.4314 18.0276 12.8234 17.298 12.3966 16.6725C11.7839 15.7755 11.7776 15.4425 11.7776 15.4392C11.7776 14.9355 12.4312 11.4356 15.3214 8.05594C18.7802 4.01335 24.074 1.80194 30.6687 1.63784C30.5096 8.44103 28.3675 13.9021 24.4472 17.4703L24.4457 17.4686Z" fill="white"/>
</g>
</svg>
