<svg width="15" height="14" viewBox="0 0 15 14" fill="none" xmlns="http://www.w3.org/2000/svg">
<path id="Vector" d="M14.5026 10.9967L12.1376 8.67292L10.3186 7.93448C10.9243 7.08816 11.2488 6.07849 11.2476 5.04386C11.2476 2.26266 8.94481 0 6.11428 0C3.28375 0 0.980957 2.26266 0.980957 5.04386C0.980957 7.82507 3.28375 10.0877 6.11428 10.0877C7.17642 10.0889 8.21249 9.76456 9.07816 9.15986L9.82774 10.9424L12.1926 13.2662C12.3443 13.4153 12.5243 13.5335 12.7225 13.6142C12.9207 13.6948 13.133 13.7363 13.3475 13.7363C13.562 13.7364 13.7744 13.6948 13.9726 13.6142C14.1708 13.5336 14.3508 13.4153 14.5025 13.2663C14.6542 13.1173 14.7745 12.9404 14.8566 12.7457C14.9387 12.551 14.9809 12.3423 14.981 12.1315C14.981 11.9207 14.9387 11.712 14.8566 11.5173C14.7746 11.3226 14.6543 11.1457 14.5026 10.9967ZM1.91429 5.04386C1.91429 2.76839 3.79845 0.917066 6.11428 0.917066C8.43011 0.917066 10.3143 2.76839 10.3143 5.04386C10.3143 7.31933 8.43011 9.17066 6.11428 9.17066C3.79845 9.17066 1.91429 7.31933 1.91429 5.04386ZM13.8426 12.6178C13.7112 12.7466 13.5332 12.8189 13.3476 12.8189C13.162 12.8189 12.984 12.7466 12.8526 12.6178L10.6193 10.4234L9.92236 8.76592L11.6093 9.45068L13.8426 11.6451C13.9737 11.7742 14.0473 11.9491 14.0473 12.1315C14.0473 12.3138 13.9737 12.4887 13.8426 12.6178Z" fill="#D0D0D0"/>
</svg>
