<?xml version="1.0" encoding="UTF-8"?>
<!DOCTYPE svg PUBLIC "-//W3C//DTD SVG 1.1//EN" "http://www.w3.org/Graphics/SVG/1.1/DTD/svg11.dtd">
<svg xmlns="http://www.w3.org/2000/svg" version="1.1" width="512px" height="512px" style="shape-rendering:geometricPrecision; text-rendering:geometricPrecision; image-rendering:optimizeQuality; fill-rule:evenodd; clip-rule:evenodd" xmlns:xlink="http://www.w3.org/1999/xlink">
<g><path style="opacity:0.994" fill="#0098db" d="M 448.5,-0.5 C 452.5,-0.5 456.5,-0.5 460.5,-0.5C 464.093,1.25648 466.926,3.92315 469,7.5C 476.327,34.4757 483.494,61.4757 490.5,88.5C 460.079,96.2496 429.745,104.25 399.5,112.5C 399.5,111.833 399.167,111.5 398.5,111.5C 391.942,86.5529 385.442,61.5529 379,36.5C 378.617,35.944 378.117,35.6107 377.5,35.5C 376.3,24.0502 381.3,17.2169 392.5,15C 411.423,10.2967 430.09,5.13007 448.5,-0.5 Z"/></g>
<g><path style="opacity:0.995" fill="#b3e5fe" d="M 377.5,35.5 C 378.117,35.6107 378.617,35.944 379,36.5C 385.442,61.5529 391.942,86.5529 398.5,111.5C 347.305,126.748 295.638,140.748 243.5,153.5C 238.648,133.424 233.481,113.424 228,93.5C 227.617,92.944 227.117,92.6107 226.5,92.5C 225.379,84.243 228.379,78.0763 235.5,74C 282.868,61.1587 330.201,48.3254 377.5,35.5 Z"/></g>
<g><path style="opacity:1" fill="#006aaf" d="M 490.5,88.5 C 497.363,113.627 504.363,138.627 511.5,163.5C 511.5,167.5 511.5,171.5 511.5,175.5C 509.685,179.479 506.685,182.312 502.5,184C 481.544,189.822 460.544,195.489 439.5,201C 432.8,202.589 426.966,201.089 422,196.5C 420.589,194.35 419.755,192.016 419.5,189.5C 412.541,163.914 405.875,138.247 399.5,112.5C 429.745,104.25 460.079,96.2496 490.5,88.5 Z"/></g>
<g><path style="opacity:1" fill="#47c0e8" d="M 226.5,92.5 C 227.117,92.6107 227.617,92.944 228,93.5C 233.481,113.424 238.648,133.424 243.5,153.5C 295.638,140.748 347.305,126.748 398.5,111.5C 399.167,111.5 399.5,111.833 399.5,112.5C 405.875,138.247 412.541,163.914 419.5,189.5C 387.313,198.63 354.979,207.297 322.5,215.5C 314.562,206.029 304.562,199.863 292.5,197C 289.518,196.502 286.518,196.335 283.5,196.5C 274.143,196.399 265.476,198.732 257.5,203.5C 252.715,187.706 248.215,171.706 244,155.5C 243.439,154.978 242.772,154.645 242,154.5C 190.846,168.334 139.679,182.001 88.5,195.5C 84.9374,179.829 80.6041,164.496 75.5,149.5C 74.0296,141.043 77.0296,134.877 84.5,131C 131.952,118.458 179.285,105.625 226.5,92.5 Z"/></g>
<g><path style="opacity:1" fill="#0098db" d="M 75.5,149.5 C 80.6041,164.496 84.9374,179.829 88.5,195.5C 139.679,182.001 190.846,168.334 242,154.5C 242.772,154.645 243.439,154.978 244,155.5C 248.215,171.706 252.715,187.706 257.5,203.5C 251.13,208.869 245.463,214.869 240.5,221.5C 200.809,231.84 161.142,242.34 121.5,253C 111.479,255.323 104.479,251.823 100.5,242.5C 96.8891,227.222 92.8891,212.056 88.5,197C 86.8333,196.333 85.1667,196.333 83.5,197C 58.8333,203.667 34.1667,210.333 9.5,217C 8.94404,217.383 8.61071,217.883 8.5,218.5C 5.5,208.5 2.5,198.5 -0.5,188.5C -0.5,184.5 -0.5,180.5 -0.5,176.5C 1.31481,172.521 4.31481,169.688 8.5,168C 30.9947,161.963 53.3281,155.796 75.5,149.5 Z"/></g>
<g><path style="opacity:1" fill="#006aaf" d="M 100.5,242.5 C 79.44,247.685 58.44,253.185 37.5,259C 28.6816,261.556 21.8482,259.056 17,251.5C 13.6925,240.603 10.8592,229.603 8.5,218.5C 8.61071,217.883 8.94404,217.383 9.5,217C 34.1667,210.333 58.8333,203.667 83.5,197C 85.1667,196.333 86.8333,196.333 88.5,197C 92.8891,212.056 96.8891,227.222 100.5,242.5 Z"/></g>
<g><path style="opacity:0.994" fill="#193659" d="M 283.5,196.5 C 283.5,227.833 283.5,259.167 283.5,290.5C 275.717,290.72 268.384,289.054 261.5,285.5C 245.146,276.437 236.479,262.437 235.5,243.5C 235.913,235.851 237.579,228.518 240.5,221.5C 245.463,214.869 251.13,208.869 257.5,203.5C 265.476,198.732 274.143,196.399 283.5,196.5 Z"/></g>
<g><path style="opacity:1" fill="#180626" d="M 283.5,196.5 C 286.518,196.335 289.518,196.502 292.5,197C 304.562,199.863 314.562,206.029 322.5,215.5C 330.928,229.6 332.761,244.6 328,260.5C 323.793,271.87 316.293,280.203 305.5,285.5C 298.471,288.423 291.138,290.09 283.5,290.5C 283.5,259.167 283.5,227.833 283.5,196.5 Z"/></g>
<g><path style="opacity:0.977" fill="#2a5f81" d="M 261.5,285.5 C 268.384,289.054 275.717,290.72 283.5,290.5C 283.799,298.253 283.466,305.92 282.5,313.5C 252.952,377.599 223.118,441.599 193,505.5C 190.866,508.153 188.366,510.153 185.5,511.5C 181.833,511.5 178.167,511.5 174.5,511.5C 165.095,505.781 162.595,497.781 167,487.5C 198.787,420.261 230.287,352.928 261.5,285.5 Z"/></g>
<g><path style="opacity:1" fill="#19365a" d="M 305.5,285.5 C 337.322,353.812 369.155,422.145 401,490.5C 403.716,499.736 400.883,506.736 392.5,511.5C 388.5,511.5 384.5,511.5 380.5,511.5C 375.614,508.456 372.114,504.123 370,498.5C 341.667,437.5 313.333,376.5 285,315.5C 284.583,314.244 283.75,313.577 282.5,313.5C 283.466,305.92 283.799,298.253 283.5,290.5C 291.138,290.09 298.471,288.423 305.5,285.5 Z"/></g>
</svg>
