<svg width="32" height="30" viewBox="0 0 32 30" fill="none" xmlns="http://www.w3.org/2000/svg">
<g id="&#240;&#159;&#166;&#134; icon &#34;telescope&#34;">
<path id="Vector" d="M26.444 10.8431L17.3955 13.2163" stroke="#676D75" stroke-width="1.5" stroke-linecap="round"/>
<path id="Vector_2" d="M12.6678 14.4624L10.3525 15.0586C10.176 15.1043 9.98833 15.0798 9.83017 14.9905C9.67201 14.9012 9.55616 14.7543 9.50777 14.5816L7.867 8.68439C7.82067 8.51045 7.84645 8.32558 7.9387 8.17025C8.03095 8.01491 8.18216 7.90176 8.35923 7.85556L24.4692 3.62793" stroke="#676D75" stroke-width="1.5" stroke-linecap="round"/>
<path id="Vector_3" d="M28.235 1.00006L24.0557 2.09888L26.7562 11.9882L30.9355 10.8893L28.235 1.00006Z" stroke="#676D75" stroke-width="1.5" stroke-linecap="round"/>
<path id="Vector_4" d="M9.13096 14.0866L6.45711 14.7902C6.36892 14.8126 6.2771 14.8177 6.18689 14.8053C6.09669 14.7928 6.00987 14.763 5.93141 14.7176C5.85295 14.6722 5.78439 14.612 5.72965 14.5406C5.67492 14.4691 5.63508 14.3878 5.61242 14.3012L4.71911 11.0098C4.69523 10.924 4.68888 10.8345 4.70042 10.7463C4.71196 10.6581 4.74117 10.5731 4.78636 10.496C4.83155 10.419 4.89183 10.3515 4.96372 10.2974C5.03562 10.2433 5.11771 10.2037 5.20526 10.1809L7.86696 9.48328" stroke="#676D75" stroke-width="1.5" stroke-linecap="round"/>
<path id="Vector_5" d="M5.55176 14.1403L2.61661 14.9095L1.81445 11.9699L4.74961 11.1947" stroke="#676D75" stroke-width="1.5" stroke-linecap="round"/>
<path id="Vector_6" d="M15.0319 16.8713C16.3408 16.8713 17.4019 15.8302 17.4019 14.5458C17.4019 13.2615 16.3408 12.2203 15.0319 12.2203C13.723 12.2203 12.6619 13.2615 12.6619 14.5458C12.6619 15.8302 13.723 16.8713 15.0319 16.8713Z" stroke="#676D75" stroke-width="1.5" stroke-linecap="round"/>
<path id="Vector_7" d="M6.73682 28.9996H7.99474L14.0352 16.6506" stroke="#676D75" stroke-width="1.5" stroke-linecap="square"/>
<path id="Vector_8" d="M23.3087 28.9996H22.0568L16.0164 16.6506" stroke="#676D75" stroke-width="1.5" stroke-linecap="square"/>
<path id="Vector_9" d="M15.0315 28.9999V16.8716" stroke="#676D75" stroke-width="1.5" stroke-linecap="square"/>
</g>
</svg>
