<svg width="34" height="34" viewBox="0 0 34 34" fill="none" xmlns="http://www.w3.org/2000/svg">
<path d="M24.135 0H9.88192C3.69084 0 0 3.59783 0 9.63291V23.5103C0 29.5619 3.69084 33.1598 9.88192 33.1598H24.118C30.3091 33.1598 33.9999 29.5619 33.9999 23.5268V9.63291C34.0169 3.59783 30.3261 0 24.135 0ZM25.5127 25.2843H8.50424C7.80689 25.2843 7.2286 24.7206 7.2286 24.0408C7.2286 23.361 7.80689 22.7973 8.50424 22.7973H25.5127C26.2101 22.7973 26.7883 23.361 26.7883 24.0408C26.7883 24.7206 26.2101 25.2843 25.5127 25.2843ZM25.5127 17.8234H8.50424C7.80689 17.8234 7.2286 17.2597 7.2286 16.5799C7.2286 15.9001 7.80689 15.3364 8.50424 15.3364H25.5127C26.2101 15.3364 26.7883 15.9001 26.7883 16.5799C26.7883 17.2597 26.2101 17.8234 25.5127 17.8234ZM25.5127 10.3624H8.50424C7.80689 10.3624 7.2286 9.79871 7.2286 9.11893C7.2286 8.43916 7.80689 7.87544 8.50424 7.87544H25.5127C26.2101 7.87544 26.7883 8.43916 26.7883 9.11893C26.7883 9.79871 26.2101 10.3624 25.5127 10.3624Z" fill="#4E5257"/>
</svg>
