<svg width="32" height="22" viewBox="0 0 32 22" fill="none" xmlns="http://www.w3.org/2000/svg">
<g id="&#240;&#159;&#166;&#134; icon &#34;vr glasses&#34;">
<g id="Group">
<path id="Vector" d="M8.625 6.70093H23.625C26.4288 6.70093 27.8307 6.70093 28.875 7.27373C29.5591 7.64899 30.1272 8.18866 30.5222 8.83868C31.125 9.83088 31.125 11.1628 31.125 13.8268C31.125 16.4907 31.125 17.8227 30.5222 18.8149C30.1272 19.4649 29.5591 20.0046 28.875 20.3798C27.8307 20.9526 26.4288 20.9526 23.625 20.9526H23.0345C22.0041 20.9526 21.4888 20.9526 21.0069 20.8509C20.3616 20.7148 19.7559 20.4451 19.2327 20.0613C18.8418 19.7746 18.5119 19.3986 17.8524 18.6466C17.3268 18.0473 17.064 17.7477 16.7624 17.6132C16.3586 17.4332 15.8914 17.4332 15.4876 17.6132C15.186 17.7477 14.9232 18.0473 14.3976 18.6466C13.7381 19.3986 13.4082 19.7746 13.0173 20.0613C12.4941 20.4451 11.8884 20.7148 11.2431 20.8509C10.7611 20.9526 10.2459 20.9526 9.21554 20.9526H8.625C5.82115 20.9526 4.41923 20.9526 3.375 20.3798C2.69091 20.0046 2.12285 19.4649 1.72788 18.8149C1.125 17.8227 1.125 16.4907 1.125 13.8268C1.125 11.1628 1.125 9.83088 1.72788 8.83868C2.12285 8.18866 2.69091 7.64899 3.375 7.27373C4.41923 6.70093 5.82115 6.70093 8.625 6.70093Z" stroke="#676D75" stroke-width="1.5" stroke-linecap="round" stroke-linejoin="round"/>
<path id="Vector_2" d="M5.625 10.9762H8.625" stroke="#676D75" stroke-width="1.5" stroke-linecap="round" stroke-linejoin="round"/>
<path id="Vector_3" d="M31.125 12.4014V10.7316C31.125 9.08741 31.125 8.26537 30.8952 7.49927C30.7689 7.07843 30.592 6.6728 30.3681 6.2904C29.9605 5.59428 29.3487 5.01295 28.125 3.85034C26.9013 2.68771 26.2895 2.1064 25.5569 1.7191C25.1544 1.50635 24.7273 1.33834 24.2844 1.21836C23.4781 1 22.613 1 20.8824 1H11.3676C9.63711 1 8.77185 1 7.96552 1.21836C7.52259 1.33834 7.09566 1.50635 6.69318 1.7191C5.96051 2.1064 5.34867 2.68771 4.125 3.85034C2.90133 5.01296 2.28949 5.59428 1.88186 6.2904C1.65794 6.6728 1.4811 7.07843 1.35483 7.49927C1.125 8.26537 1.125 9.08741 1.125 10.7316V12.4014" stroke="#676D75" stroke-width="1.5" stroke-linecap="round" stroke-linejoin="round"/>
</g>
</g>
</svg>
